<?xml version="1.0" encoding="UTF-8" standalone="no"?>
<!-- Created with Inkscape (http://www.inkscape.org/) -->

<svg
   width="183.87967mm"
   height="76.235336mm"
   viewBox="0 0 183.87967 76.235337"
   version="1.1"
   id="svg1"
   xml:space="preserve"
   inkscape:version="1.3.1 (91b66b0783, 2023-11-16)"
   sodipodi:docname="later_gator_logo.svg"
   inkscape:export-filename="drawing_final.png"
   inkscape:export-xdpi="96"
   inkscape:export-ydpi="96"
   xmlns:inkscape="http://www.inkscape.org/namespaces/inkscape"
   xmlns:sodipodi="http://sodipodi.sourceforge.net/DTD/sodipodi-0.dtd"
   xmlns="http://www.w3.org/2000/svg"
   xmlns:svg="http://www.w3.org/2000/svg"><sodipodi:namedview
     id="namedview1"
     pagecolor="#ffffff"
     bordercolor="#000000"
     borderopacity="0.25"
     inkscape:showpageshadow="2"
     inkscape:pageopacity="0.0"
     inkscape:pagecheckerboard="0"
     inkscape:deskcolor="#d1d1d1"
     inkscape:document-units="mm"
     inkscape:zoom="1.1816714"
     inkscape:cx="393.08728"
     inkscape:cy="135.82456"
     inkscape:window-width="3000"
     inkscape:window-height="1960"
     inkscape:window-x="-12"
     inkscape:window-y="-12"
     inkscape:window-maximized="1"
     inkscape:current-layer="layer1"
     inkscape:export-bgcolor="#ffffff00" /><defs
     id="defs1"><inkscape:path-effect
       effect="bspline"
       id="path-effect34"
       is_visible="true"
       lpeversion="1.3"
       weight="33.333333"
       steps="2"
       helper_size="0"
       apply_no_weight="true"
       apply_with_weight="true"
       only_selected="false"
       uniform="false" /><inkscape:path-effect
       effect="bspline"
       id="path-effect32"
       is_visible="true"
       lpeversion="1.3"
       weight="33.333333"
       steps="2"
       helper_size="0"
       apply_no_weight="true"
       apply_with_weight="true"
       only_selected="false"
       uniform="false" /><inkscape:path-effect
       effect="bspline"
       id="path-effect31"
       is_visible="true"
       lpeversion="1.3"
       weight="33.333333"
       steps="2"
       helper_size="0"
       apply_no_weight="true"
       apply_with_weight="true"
       only_selected="false"
       uniform="false" /><inkscape:path-effect
       effect="bspline"
       id="path-effect30"
       is_visible="true"
       lpeversion="1.3"
       weight="33.333333"
       steps="2"
       helper_size="0"
       apply_no_weight="true"
       apply_with_weight="true"
       only_selected="false"
       uniform="false" /><inkscape:path-effect
       effect="bspline"
       id="path-effect29"
       is_visible="true"
       lpeversion="1.3"
       weight="33.333333"
       steps="2"
       helper_size="0"
       apply_no_weight="true"
       apply_with_weight="true"
       only_selected="false"
       uniform="false" /><inkscape:path-effect
       effect="bspline"
       id="path-effect28"
       is_visible="true"
       lpeversion="1.3"
       weight="33.333333"
       steps="2"
       helper_size="0"
       apply_no_weight="true"
       apply_with_weight="true"
       only_selected="false"
       uniform="false" /><inkscape:path-effect
       effect="bspline"
       id="path-effect27"
       is_visible="true"
       lpeversion="1.3"
       weight="33.333333"
       steps="2"
       helper_size="0"
       apply_no_weight="true"
       apply_with_weight="true"
       only_selected="false"
       uniform="false" /><inkscape:path-effect
       effect="bspline"
       id="path-effect26"
       is_visible="true"
       lpeversion="1.3"
       weight="33.333333"
       steps="2"
       helper_size="0"
       apply_no_weight="true"
       apply_with_weight="true"
       only_selected="false"
       uniform="false" /><inkscape:path-effect
       effect="bspline"
       id="path-effect25"
       is_visible="true"
       lpeversion="1.3"
       weight="33.333333"
       steps="2"
       helper_size="0"
       apply_no_weight="true"
       apply_with_weight="true"
       only_selected="false"
       uniform="false" /><inkscape:path-effect
       effect="bspline"
       id="path-effect24"
       is_visible="true"
       lpeversion="1.3"
       weight="33.333333"
       steps="2"
       helper_size="0"
       apply_no_weight="true"
       apply_with_weight="true"
       only_selected="false"
       uniform="false" /><inkscape:path-effect
       effect="bspline"
       id="path-effect23"
       is_visible="true"
       lpeversion="1.3"
       weight="33.333333"
       steps="2"
       helper_size="0"
       apply_no_weight="true"
       apply_with_weight="true"
       only_selected="false"
       uniform="false" /><inkscape:path-effect
       effect="bspline"
       id="path-effect22"
       is_visible="true"
       lpeversion="1.3"
       weight="33.333333"
       steps="2"
       helper_size="0"
       apply_no_weight="true"
       apply_with_weight="true"
       only_selected="false"
       uniform="false" /><inkscape:path-effect
       effect="bspline"
       id="path-effect21"
       is_visible="true"
       lpeversion="1.3"
       weight="33.333333"
       steps="2"
       helper_size="0"
       apply_no_weight="true"
       apply_with_weight="true"
       only_selected="false"
       uniform="false" /><inkscape:path-effect
       effect="bspline"
       id="path-effect20"
       is_visible="true"
       lpeversion="1.3"
       weight="33.333333"
       steps="2"
       helper_size="0"
       apply_no_weight="true"
       apply_with_weight="true"
       only_selected="false"
       uniform="false" /><inkscape:path-effect
       effect="bspline"
       id="path-effect18"
       is_visible="true"
       lpeversion="1.3"
       weight="33.333333"
       steps="2"
       helper_size="0"
       apply_no_weight="true"
       apply_with_weight="true"
       only_selected="false"
       uniform="false" /><inkscape:path-effect
       effect="bspline"
       id="path-effect17"
       is_visible="true"
       lpeversion="1.3"
       weight="33.333333"
       steps="2"
       helper_size="0"
       apply_no_weight="true"
       apply_with_weight="true"
       only_selected="false"
       uniform="false" /><inkscape:path-effect
       effect="bspline"
       id="path-effect16"
       is_visible="true"
       lpeversion="1.3"
       weight="33.333333"
       steps="2"
       helper_size="0"
       apply_no_weight="true"
       apply_with_weight="true"
       only_selected="false"
       uniform="false" /><inkscape:path-effect
       effect="bspline"
       id="path-effect15"
       is_visible="true"
       lpeversion="1.3"
       weight="33.333333"
       steps="2"
       helper_size="0"
       apply_no_weight="true"
       apply_with_weight="true"
       only_selected="false"
       uniform="false" /><inkscape:path-effect
       effect="bspline"
       id="path-effect14"
       is_visible="true"
       lpeversion="1.3"
       weight="33.333333"
       steps="2"
       helper_size="0"
       apply_no_weight="true"
       apply_with_weight="true"
       only_selected="false"
       uniform="false" /><inkscape:path-effect
       effect="bspline"
       id="path-effect13"
       is_visible="true"
       lpeversion="1.3"
       weight="33.333333"
       steps="2"
       helper_size="0"
       apply_no_weight="true"
       apply_with_weight="true"
       only_selected="false"
       uniform="false" /><inkscape:path-effect
       effect="bspline"
       id="path-effect12"
       is_visible="true"
       lpeversion="1.3"
       weight="33.333333"
       steps="2"
       helper_size="0"
       apply_no_weight="true"
       apply_with_weight="true"
       only_selected="false"
       uniform="false" /><inkscape:path-effect
       effect="bspline"
       id="path-effect11"
       is_visible="true"
       lpeversion="1.3"
       weight="33.333333"
       steps="2"
       helper_size="0"
       apply_no_weight="true"
       apply_with_weight="true"
       only_selected="false"
       uniform="false" /><inkscape:path-effect
       effect="bspline"
       id="path-effect10"
       is_visible="true"
       lpeversion="1.3"
       weight="33.333333"
       steps="2"
       helper_size="0"
       apply_no_weight="true"
       apply_with_weight="true"
       only_selected="false"
       uniform="false" /><inkscape:path-effect
       effect="bspline"
       id="path-effect9"
       is_visible="true"
       lpeversion="1.3"
       weight="33.333333"
       steps="2"
       helper_size="0"
       apply_no_weight="true"
       apply_with_weight="true"
       only_selected="false"
       uniform="false" /><inkscape:path-effect
       effect="bspline"
       id="path-effect8"
       is_visible="true"
       lpeversion="1.3"
       weight="33.333333"
       steps="2"
       helper_size="0"
       apply_no_weight="true"
       apply_with_weight="true"
       only_selected="false"
       uniform="false" /><inkscape:path-effect
       effect="bspline"
       id="path-effect7"
       is_visible="true"
       lpeversion="1.3"
       weight="33.333333"
       steps="2"
       helper_size="0"
       apply_no_weight="true"
       apply_with_weight="true"
       only_selected="false"
       uniform="false" /><inkscape:path-effect
       effect="bspline"
       id="path-effect6"
       is_visible="true"
       lpeversion="1.3"
       weight="33.333333"
       steps="2"
       helper_size="0"
       apply_no_weight="true"
       apply_with_weight="true"
       only_selected="false"
       uniform="false" /><inkscape:path-effect
       effect="bspline"
       id="path-effect5"
       is_visible="true"
       lpeversion="1.3"
       weight="33.333333"
       steps="2"
       helper_size="0"
       apply_no_weight="true"
       apply_with_weight="true"
       only_selected="false"
       uniform="false" /><inkscape:path-effect
       effect="bspline"
       id="path-effect4"
       is_visible="true"
       lpeversion="1.3"
       weight="33.333333"
       steps="2"
       helper_size="0"
       apply_no_weight="true"
       apply_with_weight="true"
       only_selected="false"
       uniform="false" /><inkscape:path-effect
       effect="bspline"
       id="path-effect2"
       is_visible="true"
       lpeversion="1.3"
       weight="33.333333"
       steps="2"
       helper_size="0"
       apply_no_weight="true"
       apply_with_weight="true"
       only_selected="false"
       uniform="false" /><inkscape:path-effect
       effect="bspline"
       id="path-effect1"
       is_visible="true"
       lpeversion="1.3"
       weight="33.333333"
       steps="2"
       helper_size="0"
       apply_no_weight="true"
       apply_with_weight="true"
       only_selected="false"
       uniform="false" /><inkscape:path-effect
       effect="bspline"
       id="path-effect8-0"
       is_visible="true"
       lpeversion="1.3"
       weight="33.333333"
       steps="2"
       helper_size="0"
       apply_no_weight="true"
       apply_with_weight="true"
       only_selected="false"
       uniform="false" /><inkscape:path-effect
       effect="bspline"
       id="path-effect9-0"
       is_visible="true"
       lpeversion="1.3"
       weight="33.333333"
       steps="2"
       helper_size="0"
       apply_no_weight="true"
       apply_with_weight="true"
       only_selected="false"
       uniform="false" /></defs><g
     inkscape:label="Layer 1"
     inkscape:groupmode="layer"
     id="layer1"
     transform="translate(-10.485095,-99.501218)"><path
       style="opacity:1;fill:#138f8e;fill-opacity:1;stroke-width:0.264583"
       d="m 32.66878,133.09807 c 2.805983,0.37413 5.611965,0.74827 8.324442,0.79191 2.712477,0.0436 5.331341,-0.24318 8.118646,-0.79192 2.787306,-0.54873 5.742884,-1.35933 8.804555,-2.14502 3.06167,-0.78568 6.229252,-1.5464 9.858363,-2.48797 3.62911,-0.94158 7.719526,-2.06395 11.884895,-2.84339 4.165369,-0.77945 8.405437,-1.21592 11.348619,-1.40299 2.943183,-0.18706 4.589325,-0.12471 6.235502,-0.0623 0,0 -2.095135,3.25494 -2.095135,3.25494 -1.92054,0.19954 -3.841078,0.39907 -5.986119,0.58614 -2.145042,0.18707 -4.514492,0.36166 -6.329039,0.65473 -1.814548,0.29307 -3.074097,0.70461 -4.614289,1.07251 -1.540191,0.3679 -3.360926,0.69214 -5.343842,1.17852 -1.982915,0.48638 -4.127892,1.13486 -6.329053,1.75841 -2.20116,0.62356 -4.458371,1.22216 -6.678238,1.85819 -2.219866,0.63603 -4.402256,1.30945 -7.345457,1.90183 -2.943201,0.59237 -6.647023,1.10368 -9.764807,1.12238 -3.117784,0.0187 -5.649354,-0.45518 -8.249591,-1.3157 -2.600237,-0.86051 -5.268986,-2.10759 -7.114708,-3.19882 -1.845722,-1.09122 -2.868328,-2.02653 -3.610359,-2.99928 -0.742031,-0.97275 -1.203453,-1.98289 -1.390524,-2.45056 -0.187071,-0.46766 -0.09976,-0.39283 -0.01246,-0.318 z"
       id="path34"
       inkscape:path-effect="#path-effect34"
       inkscape:original-d="m 32.66878,133.09807 c 0,0 5.611966,0.74826 8.417949,1.1224 2.61897,-0.28684 5.237834,-0.57367 7.856751,-0.86051 2.955695,-0.81063 5.911273,-1.62123 8.866907,-2.43185 3.167706,-0.76075 6.335287,-1.52147 9.502929,-2.2822 4.090582,-1.12241 8.180998,-2.24478 12.271499,-3.36718 4.240236,-0.43649 8.480303,-0.87297 12.720457,-1.30946 1.646209,0.0624 4.93853,0.18707 4.93853,0.18707 0,0 -2.095135,3.25494 -2.095135,3.25494 0,0 -3.841078,0.39907 -5.761619,0.59861 -2.369542,0.1746 -4.738992,0.34919 -7.108489,0.52378 -1.259599,0.41155 -2.519148,0.82309 -3.778724,1.23464 -1.820807,0.32425 -3.641542,0.64849 -5.462315,0.97274 -2.145059,0.6485 -4.290036,1.29698 -6.435052,1.94548 -2.257304,0.59862 -4.514514,1.19722 -6.771773,1.79583 -2.182473,0.67345 -4.364863,1.34687 -6.547294,2.0203 -3.703971,0.51133 -7.407794,1.02263 -11.111693,1.53394 -2.531668,-0.47391 -5.063238,-0.9478 -7.594859,-1.42169 -2.668855,-1.24713 -5.337604,-2.49421 -8.006405,-3.74132 -1.022644,-0.93534 -2.045251,-1.87065 -3.067873,-2.80598 -0.461439,-1.01017 -0.922859,-2.02031 -1.384287,-3.03046 0.0873,0.0748 0.261893,0.22448 0.261893,0.22448 z"
       transform="translate(0.22447864,0.11223932)" /><path
       style="opacity:1;fill:#f8e2c0;fill-opacity:1;stroke-width:0.264583"
       d="m 119.46728,125.90124 c 0.47619,-1.04056 0.95239,-2.08113 1.36244,-2.88801 0.41006,-0.80689 0.75397,-1.38007 1.30071,-1.94004 0.54675,-0.55997 1.29629,-1.1067 1.97972,-1.53439 0.68343,-0.4277 1.3007,-0.73633 2.04145,-0.97883 0.74075,-0.24251 1.60493,-0.41887 2.57496,-0.5291 0.97003,-0.11023 2.04585,-0.15433 3.02029,-0.0485 0.97443,0.10582 1.84743,0.36155 2.5485,0.64374 0.70106,0.28219 1.23015,0.59082 1.72839,0.97443 0.49825,0.3836 0.96561,0.84214 1.32716,1.3448 0.36156,0.50265 0.61729,1.04937 0.89507,1.60053 0.27778,0.55115 0.5776,1.10669 0.80247,1.59612 0.22487,0.48942 0.37478,0.91269 0.54622,1.32493 0.17145,0.41223 0.36442,0.8134 0.5574,1.21458 0.0363,-0.70982 0.0726,-1.41964 0.0775,-1.96415 0.005,-0.54451 -0.0215,-0.92369 -0.0965,-1.52775 -0.075,-0.60407 -0.19841,-1.43298 -0.37037,-2.08554 -0.17196,-0.65257 -0.39241,-1.12875 -0.5776,-1.50353 -0.18518,-0.37478 -0.3351,-0.64815 -0.53792,-0.9568 -0.20283,-0.30864 -0.45855,-0.65255 -0.72751,-0.97001 -0.26897,-0.31746 -0.55115,-0.60847 -1.12435,-1.07584 -0.5732,-0.46738 -1.43739,-1.11111 -2.23986,-1.57849 -0.80248,-0.46737 -1.54321,-0.75837 -2.24868,-0.95238 -0.70548,-0.194 -1.37566,-0.291 -1.99295,-0.30864 -0.61729,-0.0176 -1.18165,0.0441 -1.90477,0.1455 -0.72311,0.10142 -1.60493,0.24251 -2.28836,0.41888 -0.68342,0.17637 -1.16842,0.38801 -1.6843,0.64815 -0.51588,0.26014 -1.06261,0.56878 -1.4859,0.89065 -0.42328,0.32188 -0.7231,0.65696 -1.12434,1.19048 -0.40124,0.53352 -0.90387,1.26543 -1.2522,1.89154 -0.34833,0.62611 -0.54233,1.14638 -0.70988,1.76808 -0.16755,0.6217 -0.30864,1.34479 -0.37037,2.22663 -0.0617,0.88185 -0.0441,1.9224 -0.0265,2.96296 z"
       id="path21"
       transform="matrix(1.0135115,0,0,1.082285,-1.8197257,-9.6222499)"
       sodipodi:nodetypes="cccccccccccccccccccccccccccccccccc" /><path
       style="opacity:1;fill:#f8e2c0;fill-opacity:1;stroke-width:0.264583"
       d="m 149.15449,113.83032 c 0.1933,0.79815 0.3866,1.59629 0.51443,2.24168 0.12783,0.64539 0.19018,1.13797 0.2307,1.50587 0.0405,0.3679 0.0592,0.61108 0.12783,0.70149 0.0686,0.0904 0.18705,0.0281 0.30553,-0.0343 0.1933,-0.16212 0.3866,-0.32425 0.80751,-0.46143 0.4209,-0.13718 1.06938,-0.24942 1.74594,-0.26501 0.67656,-0.0156 1.38116,0.0655 2.01407,0.18707 0.63291,0.1216 1.1941,0.28372 1.73971,0.48637 0.54561,0.20266 1.07562,0.44584 1.5807,0.72644 0.50508,0.2806 0.98521,0.59861 1.46535,0.96027 0.48014,0.36166 0.96026,0.76696 1.28451,1.18163 0.32425,0.41467 0.49261,0.83867 0.63914,1.21281 0.14654,0.37413 0.27125,0.69837 0.43337,1.14422 0.16213,0.44584 0.36166,1.01326 0.5082,1.44975 0.14653,0.43648 0.24007,0.74203 0.31178,1.03822 0.0717,0.29619 0.12159,0.58302 0.17147,0.86985 0,0 0.0935,-1.75842 0.0935,-1.75842 0.006,-0.53002 0.0125,-1.06004 -0.0655,-1.67425 -0.0779,-0.6142 -0.24007,-1.31256 -0.41155,-1.94235 -0.17148,-0.6298 -0.35231,-1.19098 -0.5955,-1.73036 -0.24319,-0.53938 -0.54872,-1.05691 -0.80438,-1.49964 -0.25566,-0.44273 -0.46142,-0.81061 -0.70772,-1.1068 -0.24631,-0.29619 -0.53314,-0.52067 -0.92287,-0.80127 -0.38972,-0.2806 -0.88232,-0.61731 -1.39052,-0.91974 -0.5082,-0.30242 -1.03197,-0.57054 -1.48716,-0.76384 -0.4552,-0.19331 -0.8418,-0.31178 -1.30011,-0.40843 -0.45832,-0.0966 -0.98833,-0.17147 -1.63683,-0.22447 -0.6485,-0.053 -1.41545,-0.0842 -2.05459,-0.0966 -0.63915,-0.0125 -1.15046,-0.006 -1.562,-0.006 -0.41155,0 -0.72332,-0.006 -1.0351,-0.0125 z"
       id="path16"
       transform="matrix(1.0288642,0,0,1.1369253,-4.4176455,-15.566404)" /><path
       style="opacity:1;fill:#138f8e;fill-opacity:1;stroke-width:0.264583"
       d="m 148.27528,111.02434 c 0.76697,-0.11224 1.53394,-0.22448 2.39756,-0.27748 0.86363,-0.053 1.82388,-0.0468 2.66568,0.0811 0.84181,0.12783 1.56511,0.37724 2.33832,0.67967 0.77322,0.30242 1.59629,0.65784 2.26661,1.04757 0.67033,0.38972 1.18786,0.81372 1.73659,1.28763 0.54874,0.4739 1.12863,0.99768 1.60877,1.55577 0.48014,0.55808 0.98861,1.15044 1.29727,1.71164 0.30866,0.5612 0.51998,1.10352 0.70081,1.65848 0.18083,0.55497 0.20305,1.12256 0.31217,1.90824 0.10913,0.78569 0.20266,1.77711 0.20577,2.47238 0.003,0.69526 -0.0842,1.09433 -0.16212,1.49029 -0.0779,0.39596 -0.14654,0.78879 -0.22448,1.12863 -0.0779,0.33983 -0.16524,0.62666 -0.21513,0.57677 -0.0499,-0.0499 -0.0623,-0.43648 -0.0748,-0.82308 -0.0125,-0.79815 -0.0249,-1.59629 -0.0966,-2.25102 -0.0717,-0.65474 -0.20265,-1.16605 -0.39284,-1.78649 -0.19019,-0.62044 -0.4396,-1.34998 -0.71397,-2.01095 -0.27436,-0.66097 -0.66425,-1.22285 -0.9698,-1.69363 -0.30554,-0.47079 -0.52672,-0.85045 -0.98504,-1.24641 -0.45832,-0.39596 -1.06315,-0.83868 -1.68359,-1.21281 -0.62044,-0.37414 -1.25645,-0.67967 -1.91118,-0.89792 -0.65474,-0.21824 -1.32816,-0.34918 -1.98601,-0.44272 -0.65786,-0.0935 -1.3001,-0.14965 -1.87689,-0.18083 -0.57679,-0.0312 -1.0881,-0.0374 -1.55577,-0.0468 -0.46766,-0.009 -0.89167,-0.0218 -1.2128,-0.0249 -0.32112,-0.003 -0.53937,0.003 -0.75761,0.009 z"
       id="path17"
       transform="matrix(1.0325234,0,0,1.0741795,-5.0843117,-8.3250502)"
       sodipodi:nodetypes="cscssssssscssscssssssscscccc" /><path
       style="opacity:1;fill:#138f8e;fill-opacity:1;stroke-width:0.264583"
       d="m 140.34033,124.6314 c -0.27337,-1.42857 -0.54674,-2.85715 -0.82893,-3.86244 -0.28219,-1.0053 -0.57319,-1.5873 -0.88184,-2.10318 -0.30865,-0.51588 -0.63492,-0.9656 -1.06262,-1.41534 -0.42769,-0.44975 -0.95678,-0.89947 -1.60494,-1.37126 -0.64815,-0.47179 -1.41533,-0.9656 -2.16049,-1.31393 -0.74516,-0.34833 -1.46825,-0.55115 -2.17813,-0.68783 -0.70989,-0.13669 -1.40653,-0.20723 -2.01941,-0.21605 -0.61288,-0.009 -1.14197,0.0441 -1.6799,0.13668 -0.53792,0.0926 -1.08465,0.22487 -1.6843,0.43652 -0.59965,0.21164 -1.2522,0.50264 -1.74162,0.74956 -0.48942,0.24691 -0.81569,0.44973 -1.23457,0.74515 -0.41888,0.29542 -0.93033,0.68341 -1.32716,1.09788 -0.39683,0.41447 -0.67901,0.85538 -0.94797,1.33157 -0.26897,0.4762 -0.5247,0.98766 -0.7628,1.5785 -0.23809,0.59083 -0.43689,1.53524 -0.65735,2.20543 l 0.16186,-1.80255 c 0.13227,-0.54674 0.13401,-0.83499 0.32801,-1.37733 0.19401,-0.54233 0.44974,-1.08024 0.77161,-1.61375 0.32187,-0.53352 0.70988,-1.06261 1.16403,-1.59172 0.45415,-0.52911 0.97442,-1.0582 1.5873,-1.56085 0.61288,-0.50265 1.31834,-0.97883 2.13845,-1.37566 0.82012,-0.39683 1.75485,-0.71428 2.57496,-0.90828 0.82011,-0.19401 1.52557,-0.26455 2.14727,-0.22928 0.6217,0.0353 1.15961,0.17637 1.77249,0.32187 0.61288,0.1455 1.3007,0.29541 1.94445,0.56437 0.64374,0.26897 1.24338,0.65697 1.89153,1.13758 0.64816,0.4806 1.34479,1.05378 1.9224,1.64903 0.57761,0.59524 1.14165,1.20073 1.56023,1.94866 0.41859,0.74794 0.69169,1.63828 0.91216,2.55099 0.22046,0.91272 0.28276,1.85953 0.23896,2.6945 -0.0438,0.83497 -0.19371,1.55806 -0.34362,2.28116 z"
       id="path22"
       transform="matrix(1.0031133,0,0,1.1217628,-0.55925225,-13.797937)"
       sodipodi:nodetypes="ccccccccccccccccccccccccccccccccc" /><path
       style="opacity:1;fill:#74fb95;fill-opacity:1;stroke-width:0.21164"
       d="m 68.884412,169.65036 c -0.0019,-1.24676 -2.601613,-2.3063 -2.099669,-1.3303 1.074232,2.0888 -4.372359,-1.41776 -5.783146,-2.26355 -1.682142,-1.00847 -3.92323,-3.30137 -4.611849,-4.6624 -0.870297,-1.72011 -2.43904,-3.42317 -1.356601,-7.5133 0.509726,-1.92606 -0.793462,-2.82401 -2.32329,-2.44005 -0.9051,0.22716 -1.14944,1.669 -1.431198,2.78795 -0.137567,0.54633 -2.08684,0.69374 -2.08684,0.69374 -0.533037,0 -4.500531,-1.58849 -6.391301,-2.25156 -2.278415,-0.799 -8.219938,-3.59355 -10.781496,-5.25507 -4.140358,-2.68558 -7.260992,-6.39614 -11.128772,-9.7176 -3.053389,-2.62211 -3.966178,-4.78237 -4.908264,-8.98021 l -0.48686,-2.84477 -0.108749,-2.4069 0.152203,-2.7289 2.261174,2.48289 c 2.544442,2.79393 4.371701,4.65442 6.172208,6.59621 0.832108,0.8974 2.530145,1.77484 3.368268,2.42275 1.95662,1.51257 5.213016,3.18271 7.494876,3.84397 2.474394,0.71705 6.236935,1.07142 9.644888,0.90839 6.113594,-0.29246 10.262525,-1.21294 24.002483,-5.32519 9.690341,-2.90023 12.784233,-3.56083 20.243832,-4.3224 2.357038,-0.24064 5.217689,-0.43752 5.39674,-0.43752 0.235001,0 -0.01629,0.52553 -0.612179,1.404 -2.039094,3.00605 -3.291671,5.74579 -3.291841,8.34134 -1.37e-4,2.10056 0.06095,2.20182 1.262056,2.70368 1.576936,0.65888 2.938217,0.28531 3.167114,-1.26842 0.32014,-2.17311 0.422193,-3.13522 1.044049,-4.62899 1.578004,-3.79053 4.879812,-6.99383 8.642742,-9.11592 1.15562,-0.65171 1.46688,-0.72603 3.46035,-0.82623 2.11755,-0.10644 2.20983,-0.13173 2.77069,-0.75945 0.51393,-0.57519 0.59435,-0.86803 0.70425,-2.56434 0.42667,-6.5857 5.42101,-13.07469 11.68907,-15.18723 6.424,-2.1651 12.42564,-0.64908 17.60659,4.44745 1.29284,1.27177 1.70324,1.86844 2.72655,3.96405 1.08257,2.21699 1.63406,2.62352 1.79285,4.34436 0.20119,2.18032 -0.10289,2.48486 0.9421,3.40238 0.97776,0.85849 2.52468,0.94875 3.21781,0.18775 0.65087,-0.71459 0.76025,-1.50789 0.76025,-2.31655 0,-1.05514 0.55631,-1.08715 2.70562,-1.18991 2.15056,-0.10282 3.29893,0.12975 5.26393,1.06607 2.64637,1.26099 4.28229,3.48923 4.9675,6.76612 0.25908,1.23896 0.29614,1.29735 0.51195,0.80656 0.73267,-1.66626 0.65866,-5.39631 -0.15287,-7.70527 -1.18706,-3.37739 -4.50036,-6.24544 -8.58772,-7.43367 -0.91969,-0.26736 -1.82944,-0.33575 -3.71781,-0.27949 l -2.91171,0.1119 -1.52956,-1.69252 c -0.72892,-0.80657 -1.67084,-1.999 -1.88727,-2.7536 l -0.28287,-0.98625 0.80965,-0.3383 c 2.84541,-1.18889 7.35584,-1.23491 10.6751,-0.10892 3.59651,1.22003 6.72275,3.57521 8.8714,6.68334 2.43301,3.51947 2.73987,4.88286 2.85031,12.66431 0.0466,3.28369 0.17631,5.99216 0.30212,6.30901 0.12125,0.30536 0.63266,0.89296 1.13646,1.30579 1.15781,0.94874 7.78428,5.44061 8.02606,5.44061 0.0992,0 0.99536,-0.64155 1.89993,-0.94553 2.2249,-0.74768 4.2214,-0.26806 5.90555,0.64339 1.70783,0.92426 3.72598,1.98065 4.29769,3.28935 0.74645,1.70869 0.7838,3.82704 0.68365,5.9453 -0.0784,1.65906 -3.9341,4.80388 -5.11809,5.30835 -0.72491,0.30887 -2.85062,0.32988 -18.80215,0.41288 -10.15032,0.0528 -18.99712,0.16391 -20.97949,0.0486 -3.25709,-0.18949 -4.17377,-0.28915 -6.64023,-1.11152 -4.4944,-1.49853 -9.55527,-3.10403 -12.18943,-6.87295 l -0.81477,-1.16577 -0.23751,-1.45328 c -0.29409,-1.79939 -0.35975,-1.60916 -1.7284,-2.21458 -0.88078,-0.38961 -0.39151,-0.34391 -1.66098,-0.001 -0.19902,0.0537 -1.35511,0.77477 -2.98942,2.53996 -2.74512,2.96496 -3.05084,3.11247 -3.05084,3.86139 0,1.69007 0.23224,1.87431 2.13665,1.87431 0.88878,0 0.98687,0.40095 1.80954,-0.56199 l 0.9604,-1.12416 2.03414,1.35899 c 2.53602,1.69429 4.24281,2.59831 7.33131,4.36418 3.06714,1.75366 5.90406,3.43486 8.26767,4.03369 3.97779,1.0078 5.73399,1.37717 18.41311,1.51127 7.77952,0.0823 12.59365,0.12222 12.59486,0.2593 0.001,0.11641 0.14867,1.21429 0.0371,1.5344 -0.19626,0.563 -1.15283,0.68789 -2.64776,0.68966 -1.74166,0.002 -5.85571,0.6658 -17.76236,1.58214 -9.26177,0.71279 -14.48653,1.44669 -22.35452,0.96204 l -6.45504,-0.39762 -1.39455,-1.34849 c -2.40819,-2.32867 -4.58104,-3.35394 -7.86303,-4.19304 -0.80119,-0.20484 -2.2749,-0.72911 -2.40189,-0.80938 -0.12699,-0.0803 -0.40022,-1.06248 -0.60717,-1.82703 -0.20695,-0.76455 -0.73371,-1.93496 -1.17057,-2.60091 -0.83847,-1.27815 -2.45265,-2.95767 -2.6515,-2.75882 -0.17074,0.17074 0.31812,1.19202 1.09983,2.29766 0.58059,0.82119 1.97299,3.98541 1.97299,4.48361 0,0.09 -0.11277,0.56038 -0.44461,0.56038 -2.05748,0 -2.22606,1.08882 -1.41998,3.01804 0.41416,0.99123 0.59973,0.83211 2.77649,1.25233 4.75355,0.91768 8.23332,3.02936 9.35948,5.21934 0.44843,0.87203 0.77686,4.9283 0.43642,4.9283 -0.11008,0 -0.88186,-1.26957 -1.13304,-1.78658 -0.35936,-0.73965 -0.61536,-0.98382 -1.20108,-1.14555 -0.894,-0.24684 -0.99465,-0.008 -1.60494,0.54305 -0.44871,0.40531 -1.06409,0.69582 -3.74404,0.24324 -5.89353,-0.99526 -9.41568,-2.00622 -11.954552,-4.55377 -1.829411,-1.83565 -2.418448,-3.67092 -3.358965,-6.3539 -0.505976,-1.44338 -0.658431,-2.3575 -0.56014,-3.01588 0.323987,-2.17016 -0.551829,-2.67039 -2.263641,-1.78518 -1.375709,0.71141 -1.625947,1.76051 -1.964574,5.43809 l -0.289046,3.13909 -3.644945,-0.4041 c -1.517198,-0.16821 -4.724313,-0.68413 -7.110558,-0.96171 -2.386248,-0.27758 -5.711434,-0.64057 -7.301601,-0.87266 l -2.883601,-0.42088 v -1.72762 c 0,-0.95019 -0.09574,-2.24062 -0.212756,-2.86762 -0.277281,-1.48572 -1.281224,-3.519 -2.131354,-4.31662 l -0.674576,-0.63291 0.116948,0.5291 c 0.06432,0.29101 0.454893,1.34223 0.867939,2.33604 0.64792,1.55895 0.770768,2.13262 0.895112,4.17991 0.09922,1.63361 0.07359,2.37295 -0.08224,2.37295 -0.1245,0 -0.799214,-0.14675 -1.499359,-0.32612 -1.152719,-0.29531 -1.348568,-0.29455 -2.072844,0.008 -1.109107,0.46342 -1.556081,0.92075 -1.556081,1.59216 0,0.91696 0.774827,1.65926 2.623415,2.51332 2.170584,1.00281 3.155498,1.86516 3.992677,3.49584 0.800272,1.55877 0.953857,3.64879 0.315134,4.28841 -0.352875,0.35337 -0.370409,0.34626 -0.371163,-0.15065 z M 177.43845,147.06162 c 0.30108,-0.22277 0.68734,-0.80118 0.85836,-1.28534 1.05666,-2.99156 -3.12101,-5.07157 -4.7267,-2.35336 -0.55123,0.93317 -0.45194,2.37306 0.21861,3.16995 0.31061,0.36914 0.76299,0.75624 1.00529,0.86022 0.64522,0.27688 2.01526,0.0741 2.64444,-0.39147 z m 8.06856,-0.20797 c 1.15481,-1.03482 1.21972,-3.0202 0.13213,-4.04194 -1.99601,-1.87515 -5.08671,0.0681 -4.36589,2.74498 0.49067,1.82221 2.84333,2.54293 4.23376,1.29696 z M 52.952458,140.3565 c 2.605379,-0.45851 2.982958,-0.78391 2.694403,-2.32205 -0.259887,-1.38532 -0.907089,-1.50557 -4.070725,-0.75634 -3.223234,0.76334 -3.348207,0.81124 -3.608853,1.3833 -0.346083,0.75957 -0.308703,1.09262 0.177154,1.57848 0.525873,0.52587 2.24555,0.56758 4.808021,0.11661 z m 24.48782,-0.78978 c 1.578509,-1.84413 2.268656,-4.13427 1.482733,-4.92019 -1.286539,-1.28654 -4.636709,1.15798 -5.065533,3.69616 -0.262421,1.55326 0.215853,2.06919 1.942463,2.09542 0.78192,0.0119 0.969661,-0.0879 1.640337,-0.87139 z m -9.705917,-1.8789 c 0.362818,-0.34085 0.515922,-0.7124 0.515922,-1.25202 0,-0.95379 -0.306766,-1.27528 -1.216861,-1.27528 -1.910482,0 -3.361428,1.96041 -2.116476,2.85963 0.659476,0.47633 2.142887,0.30136 2.817415,-0.33233 z m 33.017019,-0.77288 c 0.43151,-0.43151 0.9381,-1.58391 0.9381,-2.13402 0,-0.21625 -0.23084,-0.61004 -0.51297,-0.87509 -0.46206,-0.43408 -0.5874,-0.45735 -1.262916,-0.23441 -1.547783,0.51082 -2.31794,2.263 -1.398722,3.18222 0.526899,0.5269 1.737728,0.56009 2.236508,0.0613 z M 74.04393,134.8846 c 1.152475,-0.48466 1.659038,-1.29663 1.459648,-2.33968 -0.178078,-0.93154 -1.166632,-1.25892 -2.969688,-0.98345 -1.826027,0.27898 -3.173579,0.77871 -3.439459,1.27551 -0.289788,0.54147 -0.261731,1.53591 0.05557,1.96984 0.614672,0.84062 2.990191,0.87837 4.893929,0.0778 z m 11.938741,-2.72528 c 0.907762,-0.27571 1.357548,-0.96725 1.186233,-1.82383 -0.185243,-0.9262 -0.883415,-1.31255 -2.371918,-1.31255 -1.615938,0 -2.651255,0.6253 -2.751688,1.66195 -0.163388,1.68645 1.360461,2.25708 3.937373,1.47443 z m 15.900829,-0.16836 c 1.15995,-0.33267 1.71074,-0.99111 1.71074,-2.04508 0,-1.14308 -0.46427,-1.45161 -1.86769,-1.24115 -1.897069,0.28448 -3.463678,2.72668 -2.100566,3.27458 0.639706,0.25713 1.388106,0.26099 2.257516,0.0117 z m 30.55687,-0.71427 c 0.83015,-0.34686 1.93484,-1.56462 2.3876,-2.632 0.18648,-0.43963 0.33915,-1.41849 0.34655,-2.22208 0.0352,-3.81717 -3.16068,-6.2412 -6.24134,-4.73397 -1.81353,0.88728 -2.69515,2.48393 -2.69133,4.87413 0.003,2.07512 0.96272,3.76214 2.64343,4.64819 0.78512,0.4139 2.63973,0.44819 3.55509,0.0657 z m 21.38604,-0.33636 c 1.50113,-0.34834 2.83458,-2.14618 3.03546,-4.09259 0.13658,-1.32328 -0.32472,-3.17127 -1.00865,-4.04075 -0.89913,-1.14306 -2.86226,-1.70732 -4.57916,-1.31618 l -0.68005,0.15492 -0.0607,4.65901 c -0.0334,2.56245 -0.021,4.69851 0.0275,4.7468 0.15968,0.15899 2.43514,0.0815 3.26561,-0.11121 z m -13.51022,-5.85319 c 0.53292,-3.88152 -0.14332,-7.19327 -2.55513,-9.79831 -2.45336,-2.64993 -5.06291,-3.77815 -8.26366,-3.57274 -4.16271,0.26715 -8.59877,4.31659 -9.56942,8.73541 -0.32464,1.47794 -0.56071,6.03176 -0.31268,6.03176 0.10932,0 0.513,-0.71503 0.89706,-1.58895 1.02759,-2.33827 1.80858,-3.39104 3.31087,-4.46305 1.90781,-1.36138 3.33282,-1.81877 6.0483,-1.94132 1.89303,-0.0854 2.49459,-0.0294 3.73826,0.34838 2.27735,0.69172 3.35157,1.66203 4.63642,4.18794 0.58229,1.14473 1.22724,2.53371 1.43321,3.08662 0.20597,0.55292 -0.46733,4.37813 0.51971,1.0053 0.0224,-0.0767 -0.0321,-0.94483 0.11706,-2.03104 z"
       id="path33"
       sodipodi:nodetypes="sssssssssssscccssssssssssssssssssssssssssssssscsscsssssssssssssssscssssssscssssssssscsssssssssssssssssssssscssscssscsssssssssscsssssssssssssssssssssssssssssssssssssssssssssssssssssssssssscssssssssssssssssssss" /><path
       style="opacity:1;fill:#ffffff;fill-opacity:1;stroke-width:0.264583"
       d="m 115.42657,109.30334 c 0,0 1.83324,1.79583 1.83324,1.79583 0.76073,-0.78568 1.52147,-1.57135 2.46304,-2.30092 0.94158,-0.72956 2.06395,-1.40298 3.52931,-1.97666 1.46537,-0.57367 3.27363,-1.04756 4.90735,-1.27828 1.63372,-0.23071 3.0928,-0.21825 4.40851,-0.0748 1.31571,0.14342 2.48796,0.41778 3.50436,0.7545 1.0164,0.33672 1.87688,0.73578 2.73738,1.13485 0,0 -2.39444,-1.79582 -2.39444,-1.79582 0,0 -3.1427,-1.53394 -3.1427,-1.53394 0,0 -2.80598,-0.41154 -2.80598,-0.41154 0,0 -2.43185,-0.0374 -2.43185,-0.0374 0,0 -3.18012,0.29931 -3.18012,0.29931 0,0 -3.442,1.1598 -3.442,1.1598 0,0 -2.73116,1.45911 -2.73116,1.45911 z"
       id="path2"
       transform="matrix(1,0,0,1.0547263,0,-6.0800495)" /><path
       style="opacity:1;fill:#ffffff;fill-opacity:1;stroke-width:0.264583"
       d="m 144.87069,106.6283 c 0.71085,-0.32425 1.42169,-0.64849 2.28844,-0.90415 0.86675,-0.25566 1.88935,-0.44272 2.89016,-0.51131 1.00081,-0.0686 1.97977,-0.0187 3.05229,0.11847 1.07252,0.13718 2.23854,0.36166 3.29235,0.71085 1.05381,0.3492 1.99536,0.82309 2.97434,1.3157 0.97899,0.49261 1.99536,1.00392 3.01175,1.51523 -0.49884,-0.50508 -0.99768,-1.01016 -1.71478,-1.52459 -0.71709,-0.51444 -1.6524,-1.03821 -2.75298,-1.509 -1.10058,-0.47078 -2.36637,-0.88855 -3.40771,-1.18162 -1.04134,-0.29307 -1.85818,-0.46143 -2.78728,-0.51443 -0.9291,-0.053 -1.97041,0.009 -2.87145,0.11536 -0.90104,0.106 -1.66176,0.25565 -2.37885,0.41466 -0.71709,0.159 -1.39051,0.32736 -1.83636,0.46454 -0.44584,0.13719 -0.66407,0.24318 -0.58613,0.48637 0.078,0.24319 0.45208,0.62355 0.82621,1.00392 z"
       id="path15"
       transform="matrix(1.0173293,0,0,1.0945395,-2.4959207,-9.3013652)" /><path
       style="opacity:1;fill:#138f8e;fill-opacity:1;stroke-width:0.264583"
       d="m 122.46111,161.69054 c 2.62346,-0.0309 7.87038,-0.0926 13.51419,-0.36156 5.64381,-0.26897 11.68426,-0.74515 16.53439,-1.09789 4.85013,-0.35273 8.50967,-0.582 10.91269,-0.70988 2.40301,-0.12787 3.54937,-0.15433 4.69576,-0.1808 0,0 -0.39683,0.74074 -0.39683,0.74074 -0.41446,0.55556 -0.82892,1.11111 -1.35803,1.67109 -0.52911,0.55997 -1.17284,1.12433 -1.84304,1.62257 -0.6702,0.49824 -1.36684,0.93034 -2.78662,1.50795 -1.41977,0.5776 -3.56258,1.30069 -5.02643,1.72398 -1.46386,0.42328 -2.24868,0.54673 -7.8793,0.61288 -5.63063,0.0661 -16.10663,0.075 -26.58283,0.0838 0,0 -0.0529,-1.2963 -0.0529,-1.2963 -0.17637,-0.49383 -0.35274,-0.98766 -0.65256,-1.5829 -0.29983,-0.59525 -0.7231,-1.29188 -1.00529,-1.71517 -0.28219,-0.42328 -0.42328,-0.57319 -0.51588,-0.69224 -0.0926,-0.11906 -0.13668,-0.20723 -0.15873,-0.25132 -0.022,-0.0441 -0.0221,-0.0441 2.60141,-0.075 z"
       id="path5"
       transform="matrix(1.0076741,0,0,1.1063117,-1.1578926,-17.01911)" /><path
       style="opacity:1;fill:#138f8e;fill-opacity:1;stroke-width:0.264583"
       d="m 94.194633,153.95588 c 0.202901,0.4058 0.390067,0.82273 0.736144,1.82978 0.346077,1.00705 0.828973,2.99651 1.474357,4.1002 0.645383,1.1037 1.424806,2.09513 2.391323,2.97746 0.966517,0.88234 2.120063,1.65552 3.491893,2.28844 1.37183,0.63291 2.96185,1.1255 4.53633,1.50275 1.57449,0.37725 3.13334,0.63914 4.16844,0.79815 1.0351,0.159 1.54641,0.21512 2.05772,0.27124 l -0.20577,0.41154 c -0.0312,0.12471 -0.0623,0.24945 -0.0343,0.5051 0.0281,0.25565 0.11536,0.64224 0.2432,0.97585 0.12783,0.3336 0.29618,0.61419 0.45207,0.85738 0.15589,0.24319 0.2993,0.44895 0.44272,0.65472 l -4.52698,-0.0561 c -1.14734,-0.0249 -2.29467,-0.0499 -3.13647,-0.0873 -0.8418,-0.0374 -1.37805,-0.0873 -2.00785,-0.22135 -0.62979,-0.13407 -1.35309,-0.35231 -2.08577,-0.61732 -0.73268,-0.26501 -1.4747,-0.57679 -2.14191,-0.8948 -0.667201,-0.31801 -1.259559,-0.64225 -1.783349,-1.01639 -0.52379,-0.37414 -0.978969,-0.79814 -1.449756,-1.30634 -0.470786,-0.5082 -0.957151,-1.10057 -1.334402,-1.65553 -0.377251,-0.55497 -0.645375,-1.07251 -0.888561,-1.668 -0.243186,-0.5955 -0.461427,-1.26893 -0.639139,-2.09514 -0.177713,-0.82622 -0.314891,-1.80517 -0.349186,-2.64385 -0.0343,-0.83869 0.0343,-1.53706 0.12471,-2.27286 0.09042,-0.73579 -0.114738,-2.34934 -0.03368,-2.79518 0.08106,-0.44584 0.448339,0.27604 0.498223,0.15757 z"
       id="path6"
       transform="matrix(1.0320913,-0.00361842,0.00370216,1.0087443,-3.8854455,-0.54073485)"
       sodipodi:nodetypes="ssssssscccssccssssssssssssss" /><path
       style="opacity:1;fill:#138f8e;fill-opacity:1;stroke-width:0.264583"
       d="m 67.544031,158.50158 c 0.36166,0.18706 1.084981,0.56119 1.895605,1.08186 0.810625,0.52067 1.708524,1.18786 2.347668,1.79271 0.639144,0.60485 1.019503,1.14733 1.331282,1.65553 0.311778,0.5082 0.554959,0.98209 0.745145,1.44352 0.190185,0.46144 0.327361,0.91038 0.424013,1.32817 0.09665,0.41778 0.152769,0.80437 0.199536,1.10056 0.04677,0.29619 0.08418,0.50196 0.121593,0.70773 0,0 16.125047,-0.0935 16.125047,-0.0935 -0.08106,-0.21824 -0.162124,-0.43649 -0.302423,-0.72021 -0.140298,-0.28371 -0.339834,-0.6329 -0.567433,-1.23776 -0.227599,-0.60485 -0.48325,-1.46533 -0.65161,-1.99847 -0.16836,-0.53314 -0.249422,-0.73891 -0.32113,-1.27517 -0.07171,-0.53626 -0.134063,-1.40298 -0.196418,-2.26972 0,0 -6.99625,-0.37413 -6.99625,-0.37413 -0.829324,-0.0998 -1.658649,-0.19954 -2.986832,-0.36167 -1.328184,-0.16212 -3.155153,-0.38659 -4.99465,-0.57678 -1.839497,-0.19018 -3.691409,-0.34606 -4.823158,-0.43336 -1.13175,-0.0873 -1.543286,-0.10599 -1.70853,-0.0873 -0.165244,0.0187 -0.08418,0.0748 -0.04365,0.10289 0.04053,0.0281 0.04053,0.028 0.402191,0.21508 z"
       id="path10"
       transform="matrix(1.0648653,0,0,1.0693963,-4.7256782,-10.976899)" /><path
       style="opacity:1;fill:#138f8e;fill-opacity:1;stroke-width:0.264583"
       d="m 54.91032,155.01284 c -0.207055,-0.51764 0.416666,1.89814 0.703265,3.08643 0.286597,1.18828 0.582007,2.29937 1.166231,3.34215 0.584224,1.04278 1.457226,2.01719 2.378755,2.81085 0.921529,0.79366 1.891526,1.40652 2.804235,1.82319 0.912709,0.41667 1.768072,0.63712 2.398589,0.83113 0.630517,0.194 1.036152,0.36155 1.230161,0.45633 0.194008,0.0948 0.176346,0.11686 0.06171,0.19841 -0.114632,0.0815 -0.326269,0.22264 -0.520275,0.43649 -0.194007,0.21385 -0.37037,0.50044 -0.471781,0.82011 -0.101411,0.31967 -0.127864,0.6724 -0.09259,1.00529 0.03527,0.3329 0.132274,0.64594 0.255734,0.89065 0.12346,0.24472 0.273365,0.42108 0.09699,0.49825 -0.176371,0.0772 -0.67901,0.0551 -1.36244,-0.0507 -0.68343,-0.10582 -1.547611,-0.29541 -2.186946,-0.45635 -0.639335,-0.16094 -1.053792,-0.29321 -1.673289,-0.58201 -0.619497,-0.28881 -1.443994,-0.73412 -2.12081,-1.26764 -0.676815,-0.53352 -1.205905,-1.1552 -1.660054,-1.7769 -0.454149,-0.6217 -0.833328,-1.24338 -1.12654,-1.85847 -0.293213,-0.61508 -0.500443,-1.22354 -0.641537,-1.76587 -0.141094,-0.54234 -0.216048,-1.01852 -0.257936,-1.55644 -0.04189,-0.53793 -0.05071,-1.13756 -0.03307,-1.76587 0.01764,-0.62832 0.06173,-1.28528 0.130072,-1.93123 0.06834,-0.64595 0.160934,-1.28086 0.266755,-1.87169 0.105821,-0.59084 0.224865,-1.13756 0.306436,-1.51675 0.08157,-0.3792 0.125661,-0.59083 0.15432,-0.63492 0.02866,-0.0441 0.04189,0.0794 0.0485,0.14109 0.0066,0.0617 0.0066,0.0617 0.145507,0.69445 z"
       id="path12"
       transform="matrix(1.0890099,0,0,1.0309595,-5.0841969,-4.799421)"
       sodipodi:nodetypes="ssssssscsssssssssssssssssssss" /><path
       style="opacity:1;fill:#138f8e;fill-opacity:1;stroke-width:0.264583"
       d="m 15.284158,124.87966 c 0.349189,0.59861 0.97274,2.18243 1.633713,3.67273 0.660973,1.49031 1.359338,2.88704 2.307146,4.42722 0.947808,1.54019 2.145006,3.22375 3.311059,4.70782 1.166052,1.48406 2.300892,2.76855 3.560482,3.98449 1.25959,1.21594 2.643845,2.36325 4.021909,3.37342 1.378064,1.01016 2.749851,1.88311 4.364869,2.81845 1.615018,0.93533 3.473164,1.933 5.119355,2.69997 1.646191,0.76698 3.080329,1.30322 4.383565,1.72724 1.303236,0.42402 2.475489,0.73579 3.454473,0.97897 0.978985,0.24319 1.764644,0.41778 2.550319,0.59238 0,0 -0.935326,4.15285 -0.935326,4.15285 -1.309459,-0.33672 -2.618916,-0.67343 -3.847326,-1.02886 -1.228409,-0.35543 -2.37572,-0.72956 -3.853556,-1.27829 -1.477836,-0.54873 -3.286102,-1.27204 -5.163011,-2.23232 -1.876909,-0.96028 -3.822349,-2.15748 -5.587018,-3.46072 -1.764668,-1.30323 -3.348458,-2.71243 -4.901117,-4.30251 -1.55266,-1.59007 -3.074095,-3.36092 -4.308737,-5.06323 -1.234641,-1.70231 -2.182425,-3.33599 -3.074113,-5.0383 -0.891689,-1.70232 -1.72723,-3.47317 -2.307135,-5.24407 -0.579905,-1.77091 -0.904145,-3.54176 -1.028854,-4.62051 -0.12471,-1.07875 -0.04989,-1.46534 0.299303,-0.86673 z"
       id="path11"
       transform="matrix(1.0213631,0,0,1.0040942,-0.73046158,-0.06116369)" /><path
       style="opacity:1;fill:#ffffff;fill-opacity:1;stroke-width:0.267034"
       d="m 119.62246,125.91212 c 0.10234,-0.33379 0.30702,-1.00138 0.70303,-1.8203 0.39601,-0.8189 0.98333,-1.78912 1.57067,-2.59468 0.58734,-0.80555 1.17465,-1.44642 2.04232,-2.0339 0.86766,-0.58748 2.0156,-1.12154 3.17248,-1.44198 1.15688,-0.32044 2.32262,-0.42725 3.4439,-0.37829 1.12127,0.0489 2.19803,0.25367 3.08349,0.52516 0.88545,0.27149 1.57956,0.60973 2.13575,0.99248 0.55619,0.38275 0.97443,0.81 1.36599,1.26397 0.39156,0.45396 0.7564,0.93461 1.02338,1.34406 0.26697,0.40945 0.43604,0.74769 0.65407,1.24617 0.21802,0.49846 0.48499,1.15714 0.69857,1.67786 0.21357,0.52071 0.37375,0.90346 0.48944,1.28621 0.11569,0.38274 0.18687,0.76549 0.16908,1.1883 -0.0178,0.42281 -0.12459,0.88566 -0.25362,1.29957 -0.12904,0.4139 -0.28032,0.77884 -0.50279,1.2239 -0.22248,0.44506 -0.51614,0.97023 -0.76976,1.41083 -0.25362,0.44061 -0.4672,0.79665 -0.68967,1.13045 -0.22248,0.33379 -0.45385,0.64533 -0.81426,0.96132 -0.36041,0.316 -0.84985,0.63643 -1.37489,0.93017 -0.52505,0.29374 -1.08567,0.56076 -1.71305,0.80555 -0.62739,0.24479 -1.32149,0.46731 -1.91328,0.60083 -0.59179,0.13352 -1.08123,0.17802 -1.58402,0.19582 -0.5028,0.0178 -1.01892,0.009 -1.57512,-0.0401 -0.55619,-0.049 -1.15241,-0.13798 -1.65966,-0.24924 -0.50724,-0.11127 -0.92548,-0.24478 -1.42382,-0.46287 -0.49836,-0.21807 -1.07678,-0.52071 -1.57512,-0.81889 -0.49835,-0.29819 -0.9166,-0.59193 -1.42829,-1.06815 -0.5117,-0.47621 -1.11682,-1.13488 -1.60626,-1.77132 -0.48946,-0.63644 -0.8632,-1.2506 -1.12572,-1.83808 -0.26252,-0.58749 -0.4138,-1.14824 -0.5028,-1.68232 -0.089,-0.53408 -0.11569,-1.04143 -0.12905,-1.29511 -0.0133,-0.25368 -0.0133,-0.25363 0.089,-0.58743 z"
       id="path20" /><path
       style="opacity:1;fill:#003032;fill-opacity:1;stroke-width:0.264583"
       d="m 172.66268,128.5062 c 0.94809,0.69591 2.84427,2.08773 4.74045,3.47955 0.16259,-0.0854 0.32521,-0.17088 0.48782,-0.25632 0.60909,-0.18466 1.21819,-0.36931 1.81902,-0.48783 0.60083,-0.11851 1.19338,-0.17087 1.93202,-0.18327 0.73863,-0.0124 1.62331,0.0152 2.31785,0.091 0.69454,0.0758 1.19889,0.19982 1.53099,0.30179 0.33211,0.10197 0.49197,0.1819 0.99082,0.4396 0.49886,0.2577 1.33669,0.69315 1.97748,1.07487 0.6408,0.38172 1.08451,0.70969 1.46761,1.01286 0.3831,0.30317 0.70556,0.58153 1.0735,0.9784 0.36794,0.39688 0.78134,0.91226 1.22921,1.58337 0.44786,0.67111 0.93017,1.49792 1.20716,2.01332 0.27699,0.51539 0.34864,0.71932 0.4644,1.10793 0.11575,0.38862 0.2756,0.96187 0.36656,1.34634 0.091,0.38447 0.11302,0.58016 0.16264,1.13276 0.0496,0.5526 0.12679,1.46209 0.0551,2.53697 -0.0717,1.07488 -0.29214,2.31509 -0.70832,3.47541 -0.41617,1.16032 -1.02801,2.24068 -1.6316,3.11987 -0.60358,0.8792 -1.19888,1.55718 -1.8879,2.18557 -0.68903,0.62839 -1.47174,1.20716 -2.28479,1.70602 -0.81306,0.49885 -1.6564,0.91777 -2.4033,1.21267 -0.74691,0.2949 -1.39733,0.46577 -2.04225,0.58153 -0.64493,0.11575 -1.28433,0.17639 -2.22416,0.21222 -0.93984,0.0358 -2.18005,0.0469 -3.35415,0.0414 -1.1741,-0.006 -2.28202,-0.0275 -3.38996,-0.0496 0,0.28112 0,0.56224 0,0.84336 -0.0276,0.19844 -0.0551,0.39688 -0.17365,0.77171 -0.11852,0.37483 -0.32798,0.92604 -0.53193,1.43041 -0.20395,0.50436 -0.40238,0.96186 -0.71658,1.46071 -0.3142,0.49886 -0.74414,1.03904 -1.33119,1.73771 -0.58705,0.69868 -1.33118,1.5558 -2.23518,2.39365 -0.904,0.83786 -1.96783,1.6564 -3.07165,2.35369 -1.10382,0.69729 -2.24757,1.2733 -4.24575,1.95682 -1.99818,0.68351 -4.85067,1.47449 -7.70321,2.26549 -11.0644,0.0206 -22.12879,0.0413 -27.67348,0.061 -5.54469,0.0197 -5.5696,0.0384 -5.58517,0.13188 -0.0156,0.0935 -0.0218,0.26189 -0.16211,0.4739 -0.1403,0.21201 -0.41466,0.46766 -0.67343,0.72332 -0.25878,0.25566 -0.50196,0.51131 -0.85427,0.76385 -0.35232,0.25255 -0.81374,0.50196 -1.1941,0.69215 -0.38037,0.19018 -0.67967,0.32112 -3.32046,0.38348 -2.6408,0.0624 -7.62288,0.0561 -10.46628,-0.0125 -2.8434,-0.0686 -3.548,-0.19953 -4.15285,-0.33672 -0.604851,-0.13718 -1.109919,-0.28059 -1.643061,-0.52066 -0.533141,-0.24007 -1.094325,-0.57678 -1.527698,-0.83868 -0.433372,-0.26189 -0.738906,-0.44895 -1.060038,-0.67343 -0.321132,-0.22448 -0.657845,-0.48637 -0.994563,-0.74826 -7.395324,0.0437 -14.790647,0.0873 -22.185971,0.13094 -0.218243,0.21824 -0.436489,0.43649 -0.682795,0.66409 -0.246305,0.2276 -0.52066,0.46454 -0.832439,0.73891 -0.311779,0.27436 -0.660961,0.58613 -1.128632,0.85115 -0.467672,0.26501 -1.053795,0.48325 -2.12632,0.60172 -1.072525,0.11847 -2.631374,0.13717 -3.915902,0.13094 -1.284527,-0.006 -2.294662,-0.0374 -3.264293,-0.15899 -0.969631,-0.12159 -1.898704,-0.3336 -2.887044,-0.71709 -0.98834,-0.38349 -2.035887,-0.93844 -2.93381,-1.54017 -0.897923,-0.60174 -1.64617,-1.25022 -2.313375,-1.9486 -0.667206,-0.69839 -1.253334,-1.44664 -1.727235,-2.15437 -0.473902,-0.70774 -0.835556,-1.37493 -1.128628,-2.04838 -0.293072,-0.67344 -0.517545,-1.35309 -0.660963,-1.92988 -0.143417,-0.57679 -0.205771,-1.05068 -0.227595,-1.41858 -0.02182,-0.3679 -0.0031,-0.62979 -0.436496,-0.83868 -0.433378,-0.20889 -1.318802,-0.36477 -2.662575,-0.67655 -1.343772,-0.31178 -3.145801,-0.77944 -4.95412,-1.36558 -1.808318,-0.58615 -3.622817,-1.29075 -5.471668,-2.15438 -1.84885,-0.86363 -3.731937,-1.88623 -5.696146,-3.18324 -1.964208,-1.297 -4.009417,-2.86832 -5.705492,-4.33991 -1.696074,-1.4716 -3.042922,-2.84339 -4.314978,-4.30875 -1.272056,-1.46536 -2.469252,-3.02421 -3.460707,-4.48333 -0.991455,-1.45913 -1.777116,-2.81845 -2.425613,-4.10921 -0.648497,-1.29076 -1.159801,-2.5129 -1.614998,-3.87226 -0.455198,-1.35936 -0.85426,-2.85585 -1.197217,-4.29627 -0.342957,-1.44042 -0.629784,-2.82467 -0.798144,-5.10067 -0.168361,-2.276 -0.218244,-5.44358 -0.268129,-7.53872 -0.04988,-2.09515 -0.09977,-3.11775 -0.112237,-3.97202 -0.01247,-0.85427 0.01247,-1.54017 0.0873,-2.0203 0.07483,-0.48014 0.199536,-0.7545 0.361951,-1.01453 0.162415,-0.26003 0.362532,-0.50573 0.53314,-0.68811 0.170609,-0.18237 0.311698,-0.30141 0.471533,-0.41605 0.159835,-0.11464 0.338403,-0.22487 0.536813,-0.31415 0.198409,-0.0893 0.41667,-0.15763 0.672406,-0.1918 0.255735,-0.0342 0.548939,-0.0342 0.816793,0.001 0.267853,0.0353 0.510366,0.10582 0.735235,0.21164 0.224868,0.10582 0.432095,0.24691 0.611772,0.4299 0.179677,0.18298 0.33179,0.40784 1.2412,2.04809 0.90941,1.64024 2.576046,4.69574 4.242715,7.7513 0.458554,-0.15873 0.917107,-0.31746 1.375661,-0.47619 0.564375,-0.10582 1.12875,-0.21164 1.657856,-0.25573 0.529107,-0.0441 1.022924,-0.0265 1.455028,0.0309 0.432103,0.0573 0.802465,0.15432 1.190478,0.29982 0.388014,0.14551 0.793649,0.33951 1.190478,0.58642 0.396828,0.24692 0.784827,0.54674 1.086857,0.85759 0.302031,0.31085 0.518078,0.63272 0.793654,1.10671 0.275575,0.47399 0.610665,1.10008 0.828922,1.69092 0.218256,0.59083 0.319667,1.14638 0.348326,1.73281 0.02866,0.58642 -0.01543,1.20369 -0.097,1.70414 -0.08157,0.50044 -0.200617,0.88403 -0.319665,1.26763 0.868609,0.34833 1.737214,0.69665 2.605823,1.04498 0.229277,-0.44974 0.458553,-0.89947 0.716494,-1.30953 0.257942,-0.41006 0.544531,-0.78042 0.895064,-1.13977 0.350533,-0.35935 0.764988,-0.70767 1.313938,-1.0053 0.54895,-0.29762 1.232358,-0.54453 1.995155,-0.6724 0.762797,-0.12787 1.604932,-0.13671 2.422843,-0.0463 0.81791,0.0904 1.611545,0.27997 2.195764,0.53571 0.584218,0.25573 0.958993,0.5776 1.404325,1.0053 0.445332,0.42769 0.961196,0.96119 1.335978,1.58289 0.374782,0.6217 0.608464,1.33156 0.84215,2.04144 1.397709,-0.26896 2.795418,-0.53792 4.193127,-0.80688 0,-0.70106 0,-1.40212 0.105822,-2.17374 0.105823,-0.77161 0.317457,-1.61374 0.577601,-2.33906 0.260145,-0.72531 0.568785,-1.33377 0.859792,-1.8739 0.291008,-0.54012 0.564374,-1.0119 0.879632,-1.41314 0.315258,-0.40123 0.672398,-0.73192 1.106706,-1.08686 0.434309,-0.35494 0.945761,-0.73412 1.565258,-1.11552 0.619497,-0.3814 1.346997,-0.76499 2.156089,-1.06482 0.809092,-0.29982 1.699731,-0.51586 2.416227,-0.6305 0.716496,-0.11464 1.258814,-0.12788 1.962086,-0.0706 0.703273,0.0573 1.567453,0.18518 2.301586,0.39021 0.734134,0.20503 1.33818,0.48721 1.90256,0.80909 0.56438,0.32187 1.089063,0.68342 1.655647,1.19048 0.566585,0.50706 1.175043,1.15961 1.604938,1.72839 0.429896,0.56879 0.681214,1.05379 0.820098,1.32715 0.138884,0.27336 0.165347,0.33511 1.104519,0.12567 0.939172,-0.20944 2.790989,-0.69003 4.642843,-1.17063 0.03968,-0.53351 0.07937,-1.06702 0.11905,-1.60053 0.198413,-0.74515 0.396824,-1.4903 0.645945,-2.23767 0.249121,-0.74736 0.548941,-1.49691 0.928133,-2.2112 0.379192,-0.71429 0.837738,-1.39329 1.408732,-2.07231 0.570995,-0.67902 1.254404,-1.35802 2.039247,-2.01059 0.784843,-0.65256 1.67107,-1.27865 2.486776,-1.71296 0.815707,-0.43431 1.560844,-0.67681 2.34789,-0.85979 0.787046,-0.18298 1.615954,-0.30643 2.713852,-0.3373 1.097899,-0.0309 2.464716,0.0309 3.564813,0.21606 1.100097,0.18519 1.933417,0.49382 2.768966,0.93915 0.835549,0.44534 1.67327,1.02733 2.420633,1.64463 0.747364,0.61729 1.404317,1.26983 1.997357,1.99074 0.59304,0.72091 1.12213,1.51013 1.50132,2.14065 0.37919,0.63052 0.60846,1.10229 0.79145,1.7284 0.18298,0.62611 0.31966,1.40652 0.45635,2.18695 1.47707,-0.55556 2.95415,-1.11111 4.43122,-1.66667 0.18959,-0.97884 0.37919,-1.95768 0.63492,-2.91889 0.25574,-0.96121 0.5776,-1.90475 0.92373,-2.76454 0.34612,-0.8598 0.71649,-1.63581 1.12655,-2.35892 0.41005,-0.72311 0.85978,-1.39329 1.41755,-2.10979 0.55776,-0.7165 1.22354,-1.47927 1.86508,-2.14727 0.64154,-0.66799 1.25881,-1.24117 1.95767,-1.83201 0.69887,-0.59084 1.47927,-1.19929 2.39639,-1.7769 0.91712,-0.5776 1.9709,-1.12433 2.95856,-1.57848 0.98767,-0.454152 1.90916,-0.815695 2.95194,-1.115522 1.04279,-0.299827 2.20679,-0.537918 3.51471,-0.648243 1.30792,-0.110325 2.75969,-0.09288 4.40846,0.102909 1.64877,0.195791 3.49444,0.569913 4.92239,1.000169 1.42794,0.430257 2.43808,0.916617 3.14425,1.303227 0.70618,0.3866 1.10836,0.67343 1.51055,0.96026 0.37413,-0.26813 0.74827,-0.53625 1.35935,-0.87921 0.61109,-0.34296 1.4591,-0.76072 2.30714,-1.127065 0.84804,-0.36634 1.69606,-0.68123 2.43965,-0.882326 0.74359,-0.201097 1.38272,-0.288393 2.24791,-0.346072 0.86519,-0.05768 1.95638,-0.08574 3.42798,0.04677 1.4716,0.132508 3.32351,0.425571 4.84499,0.82465 1.52148,0.39908 2.71244,0.904143 4.14974,1.733483 1.43731,0.82934 3.12086,1.98288 4.40538,3.05852 1.28453,1.07563 2.16995,2.07329 3.03047,3.13646 0.86051,1.06317 1.69605,2.19177 2.35702,3.50125 0.66097,1.30947 1.14733,2.79973 1.48405,4.12167 0.33672,1.32194 0.52378,2.47549 0.58614,3.36718 0.0623,0.89168 0,1.52145 -0.18395,2.00159 -0.18395,0.48014 -0.48949,0.81062 -0.77945,1.06316 -0.28995,0.25254 -0.5643,0.42713 -0.90103,0.49884 -0.33672,0.0717 -0.73579,0.0405 -1.1068,-0.0499 -0.37102,-0.0904 -0.71396,-0.24006 -0.97897,-0.42401 -0.26501,-0.18395 -0.45207,-0.40219 -0.6142,-0.71396 -0.16213,-0.31178 -0.2993,-0.71708 -0.40538,-1.11035 -0.10607,-0.39328 -0.18102,-0.77446 -0.25875,-1.31385 -0.0777,-0.53939 -0.15822,-1.23689 -0.2361,-1.88185 -0.0779,-0.64496 -0.15316,-1.23732 -0.39658,-1.92012 -0.24341,-0.6828 -0.65495,-1.45599 -1.13509,-2.21673 -0.48014,-0.76074 -1.02885,-1.50898 -1.58382,-2.18866 -0.55496,-0.67968 -1.11615,-1.29075 -1.721,-1.83636 -0.60486,-0.54561 -1.25334,-1.02574 -1.92678,-1.48405 -0.67344,-0.45832 -1.37181,-0.8948 -2.03278,-1.24711 -0.66097,-0.35231 -1.28451,-0.62043 -2.05772,-0.88232 -0.77321,-0.2619 -1.69605,-0.51755 -2.51291,-0.67967 -0.81686,-0.16212 -1.5277,-0.23072 -2.33833,-0.25255 -0.81062,-0.0218 -1.72099,0.003 -2.63762,0.11534 -0.91663,0.11224 -1.83947,0.31177 -2.60644,0.53937 -0.76698,0.2276 -1.37804,0.48325 -1.98912,0.73891 0.67343,0.72956 1.34687,1.45911 2.0203,2.18867 0.44896,0.62979 0.89792,1.25957 1.28764,1.84572 0.38973,0.58614 0.7202,1.12862 0.98521,1.67423 0.26501,0.54562 0.46455,1.09433 0.69526,1.86131 0.23072,0.76698 0.49261,1.75217 0.67344,2.66257 0.18083,0.91039 0.28059,1.74593 0.30553,2.4412 0.0249,0.69526 -0.0249,1.25021 -0.16524,1.69606 -0.1403,0.44584 -0.37101,0.78255 -0.57678,1.04756 -0.20578,0.26501 -0.3866,0.45831 -0.66097,0.57367 -0.27437,0.11535 -0.64225,0.15277 -1.04756,0.10912 -0.40532,-0.0436 -0.84803,-0.16836 -1.25646,-0.42714 -0.40843,-0.25878 -0.78256,-0.65161 -1.0351,-1.00392 -0.25254,-0.35231 -0.38348,-0.66408 -0.45207,-1.04445 -0.0686,-0.38037 -0.0748,-0.82932 -0.0686,-1.25958 0.006,-0.43025 0.0249,-0.84178 -0.0593,-1.34063 -0.0842,-0.49885 -0.27124,-1.08498 -0.57055,-1.77401 -0.29931,-0.68903 -0.71085,-1.48093 -1.02886,-2.11384 -0.31802,-0.63291 -0.54249,-1.1068 -0.8948,-1.62435 -0.35231,-0.51755 -0.83244,-1.07874 -1.34064,-1.59941 -0.5082,-0.52067 -1.04444,-1.00079 -1.57135,-1.44975 -0.5269,-0.44897 -1.04444,-0.86674 -1.49028,-1.21593 -0.44585,-0.34919 -0.81997,-0.62979 -1.46536,-0.96339 -0.64538,-0.3336 -1.56198,-0.72019 -2.17307,-0.98521 -0.61108,-0.26501 -0.91662,-0.40842 -1.46847,-0.54872 -0.55185,-0.1403 -1.34998,-0.27748 -2.15749,-0.36478 -0.80751,-0.0873 -1.62434,-0.12471 -2.37261,-0.11847 -0.74827,0.006 -1.42793,0.0561 -2.11696,0.15589 -0.68903,0.0998 -1.38739,0.24942 -2.12631,0.44896 -0.73892,0.19954 -1.51834,0.44895 -2.17619,0.70149 -0.65786,0.25254 -1.1941,0.50819 -1.67736,0.79814 -0.48325,0.28996 -0.9135,0.6142 -1.43729,1.00081 -0.52379,0.38661 -1.14109,0.83555 -1.6524,1.27204 -0.51132,0.43649 -0.91662,0.8605 -1.28764,1.28764 -0.37101,0.42714 -0.70773,0.85738 -1.02262,1.25022 -0.3149,0.39284 -0.60796,0.74826 -0.9821,1.34376 -0.37414,0.5955 -0.82932,1.43104 -1.16292,2.15749 -0.3336,0.72644 -0.5456,1.34374 -0.76073,2.00783 -0.21513,0.66409 -0.43337,1.37493 -0.54249,2.01096 -0.10912,0.63602 -0.10912,1.19721 -0.106,1.72099 0.003,0.52379 0.009,1.01016 -0.0561,1.38741 -0.0655,0.37725 -0.20265,0.64537 -0.38036,0.90415 -0.17772,0.25877 -0.39596,0.50819 -0.65162,0.66408 -0.25567,0.15589 -0.54872,0.21824 -0.9821,0.28995 -0.43338,0.0717 -1.00703,0.15277 -1.44664,0.159 -0.4396,0.006 -0.74513,-0.0623 -0.98832,-0.12159 -0.24319,-0.0592 -0.42402,-0.10912 -0.97275,0.10289 -0.54874,0.21202 -1.46534,0.6859 -2.25726,1.1754 -0.79191,0.48949 -1.4591,0.99456 -2.14501,1.56512 -0.68592,0.57055 -1.390517,1.20656 -1.96419,1.79271 -0.573673,0.58614 -1.016382,1.12238 -1.409224,1.668 -0.392842,0.54561 -0.735789,1.10056 -1.032477,1.62983 -0.296688,0.52928 -0.547098,1.03285 -0.769311,1.50951 -0.222212,0.47667 -0.41621,0.92639 -0.619034,1.43786 -0.202824,0.51147 -0.414462,1.08466 -0.542328,1.65785 -0.127865,0.5732 -0.171957,1.14639 -0.194003,1.55204 -0.02205,0.40564 -0.02205,0.64373 -0.08378,0.89505 -0.06173,0.25133 -0.185182,0.51587 -0.343914,0.74515 -0.158732,0.22928 -0.352733,0.42328 -0.670199,0.59524 -0.317465,0.17196 -0.758376,0.32187 -1.238981,0.34391 -0.480605,0.022 -1.000879,-0.0838 -1.402117,-0.2866 -0.401238,-0.20282 -0.68342,-0.50264 -0.877424,-0.89506 -0.194004,-0.39242 -0.299823,-0.87742 -0.36596,-1.40653 -0.06614,-0.5291 -0.09259,-1.10228 -0.02204,-1.71076 0.07055,-0.60847 0.238095,-1.2522 0.445329,-1.96649 0.207234,-0.7143 0.45414,-1.49911 0.771605,-2.23545 0.317465,-0.73634 0.705467,-1.42416 1.115524,-2.09436 0.410057,-0.6702 0.842149,-1.32275 1.203704,-1.84745 0.361555,-0.52469 0.652557,-0.92151 0.925928,-1.24779 0.273371,-0.32628 0.529099,-0.58201 0.780424,-0.88624 0.251324,-0.30424 0.498234,-0.65697 0.745148,-1.0097 -1.366845,-0.0176 -2.733691,-0.0353 -4.100536,-0.0529 -2.098768,0.16755 -4.197536,0.33509 -6.111136,0.5291 -1.913601,0.194 -3.641961,0.41446 -5.127867,0.65256 -1.485905,0.2381 -2.729268,0.49383 -3.963849,0.77602 -1.234582,0.28219 -2.460311,0.59082 -3.434746,0.8686 -0.974434,0.27778 -1.697524,0.52469 -2.341268,0.7187 -0.643745,0.19401 -1.208109,0.3351 -3.57147,1.04939 -2.36336,0.7143 -6.525542,2.00175 -9.347431,2.82627 -2.821888,0.82452 -4.303342,1.18607 -5.824522,1.52117 -1.52118,0.3351 -3.082001,0.64374 -4.938285,0.87302 -1.856284,0.22928 -4.007918,0.37919 -5.661371,0.42769 -1.653452,0.0485 -2.808634,-0.004 -3.994715,-0.1411 -1.186082,-0.13668 -2.402989,-0.35714 -3.571434,-0.63492 -1.168445,-0.27778 -2.288349,-0.61287 -3.368609,-1.00089 -1.080259,-0.38801 -2.120802,-0.82892 -3.002644,-1.24339 -0.881842,-0.41446 -1.604934,-0.80246 -2.420642,-1.30511 -0.815708,-0.50266 -1.72398,-1.11993 -2.619052,-1.83863 -0.895073,-0.71871 -1.776892,-1.5388 -2.698418,-2.53087 -0.921527,-0.99208 -1.882708,-2.15608 -2.636682,-3.08201 -0.753975,-0.92594 -1.3007,-1.61376 -1.847438,-2.30159 0.05291,1.88713 0.105819,3.77426 0.158728,5.66139 0.202823,1.02293 0.405645,2.04585 0.652563,3.1173 0.246918,1.07144 0.537917,2.19135 1.071435,3.56703 0.533519,1.37568 1.309518,3.00704 2.173725,4.57231 0.864208,1.56527 1.816572,3.06436 2.777783,4.36949 0.961211,1.30513 1.93121,2.41622 3.042335,3.56702 1.111124,1.15081 2.363308,2.34127 3.522931,3.35979 1.159622,1.01853 2.226623,1.86508 3.13933,2.51323 0.912707,0.64816 1.671068,1.09788 2.619052,1.60053 0.947984,0.50266 2.085531,1.0582 3.22311,1.54763 1.13758,0.48942 2.275123,0.91269 3.434748,1.31834 1.159625,0.40564 2.341262,0.79364 3.54498,1.13315 1.203717,0.33951 2.429442,0.63051 3.214282,0.82011 0.78484,0.1896 1.128744,0.27778 1.47266,0.36596 0.414462,-1.80776 0.828926,-3.61553 1.243388,-5.42329 0.220459,-0.39682 0.440919,-0.79365 0.683428,-1.08025 0.242508,-0.2866 0.507049,-0.46296 0.815696,-0.59965 0.308646,-0.13668 0.661374,-0.23368 0.992064,-0.23368 0.330691,0 0.639328,0.097 0.921519,0.2866 0.282191,0.1896 0.537916,0.47178 0.727511,0.78925 0.189596,0.31746 0.313049,0.67018 0.352732,1.08465 0.03968,0.41447 -0.0044,0.89065 -0.101412,1.40653 -0.097,0.51588 -0.246911,1.07142 -0.361551,1.68431 -0.11464,0.61288 -0.194003,1.28306 -0.277778,1.95326 -0.08378,0.6702 -0.171957,1.34039 -0.198412,1.90476 -0.02645,0.56438 0.0088,1.02293 0.01764,1.4859 0.0088,0.46297 -0.0088,0.93033 0.08378,1.5388 0.0926,0.60848 0.295413,1.35802 0.648151,2.17373 0.352738,0.8157 0.855374,1.69752 1.313933,2.34127 0.458559,0.64374 0.873016,1.04938 1.331574,1.44621 0.458558,0.39682 0.961194,0.78482 1.50353,1.08024 0.542336,0.29542 1.124334,0.49824 1.666668,0.68783 0.542333,0.1896 1.044969,0.36596 1.578488,0.49383 0.533519,0.12787 1.097879,0.20723 1.569666,0.25133 0.471787,0.0441 0.850966,0.0529 1.030379,0.0498 0.179412,-0.003 0.159027,-0.0183 0.138654,-0.0334 0.02919,-0.16123 0.05838,-0.32247 0.08757,-0.4837 -0.123457,-0.20282 -0.246916,-0.40565 -0.295416,-0.6702 -0.0485,-0.26455 -0.02204,-0.59083 0.03087,-0.9127 0.05291,-0.32187 0.132275,-0.63933 0.246914,-0.88183 0.11464,-0.24251 0.264547,-0.41005 0.427687,-0.54233 0.163141,-0.13227 0.339508,-0.22928 0.55115,-0.30423 0.211641,-0.075 0.458552,-0.12787 0.718701,-0.11464 0.260149,0.0132 0.533502,0.0926 0.793646,0.21164 0.260143,0.11905 0.507053,0.27778 0.69224,0.47178 0.185187,0.19401 0.308641,0.42328 0.401234,0.65697 0.09259,0.23369 0.154321,0.47178 0.205229,0.67075 0.05091,0.19896 0.09098,0.35872 0.09098,0.5131 10e-7,0.15439 -0.04007,0.30315 0.01548,0.17713 0.05555,-0.12603 0.206723,-0.52684 0.300516,-0.89602 0.09379,-0.36919 0.130189,-0.70667 0.110145,-1.08441 -0.02004,-0.37774 -0.09652,-0.79568 -0.255974,-1.2798 -0.159454,-0.48411 -0.401862,-1.03432 -0.696724,-1.53056 -0.294862,-0.49625 -0.642131,-0.93845 -1.153606,-1.40273 -0.511475,-0.46428 -1.187089,-0.95057 -1.835165,-1.34244 -0.648076,-0.39188 -1.268531,-0.68929 -1.740483,-0.96337 -0.471952,-0.27407 -0.795344,-0.52479 -1.045065,-0.79184 -0.24972,-0.26705 -0.425763,-0.55043 -0.526861,-0.83018 -0.101099,-0.27974 -0.127235,-0.55581 -0.0554,-0.86411 0.07183,-0.3083 0.241619,-0.6488 0.568555,-0.92173 0.326936,-0.27293 0.810974,-0.47824 1.188411,-0.56627 0.377437,-0.088 0.64823,-0.0588 1.04819,0.009 0.399959,0.0675 0.929051,0.17336 1.546343,0.38059 0.617291,0.20724 1.322742,0.51588 1.935623,0.80247 0.612881,0.2866 1.133157,0.55115 1.578487,0.83775 0.44533,0.2866 0.81569,0.59523 1.172837,0.87301 0.357147,0.27779 0.701056,0.52469 1.027339,0.87743 0.326283,0.35274 0.634922,0.81129 0.921522,1.26103 0.286599,0.44974 0.551145,0.89065 0.776014,1.33598 0.224869,0.44533 0.410051,0.89506 0.529098,1.36243 0.119047,0.46738 0.171957,0.95238 0.216049,1.38448 0.04409,0.43211 0.07936,0.81129 0.114638,1.19048 5.52029,-0.0176 11.040579,-0.0353 16.560869,-0.0529 -0.255732,-0.40565 -0.511463,-0.81129 -0.798063,-1.45504 -0.286601,-0.64375 -0.604057,-1.52557 -0.850972,-2.39418 -0.246916,-0.86862 -0.423278,-1.72398 -0.533508,-2.69842 -0.11023,-0.97444 -0.154321,-2.06789 -0.127865,-3.08642 0.02646,-1.01853 0.123457,-1.96208 0.255734,-2.77778 0.132277,-0.81571 0.29982,-1.50352 0.507054,-2.05027 0.207234,-0.54674 0.454145,-0.95238 0.705469,-1.29189 0.251323,-0.3395 0.507054,-0.61287 0.850975,-0.79365 0.343922,-0.18078 0.776009,-0.26896 1.186066,-0.22045 0.410057,0.0485 0.798056,0.23368 1.089065,0.4806 0.291008,0.24692 0.485004,0.55555 0.634919,0.88184 0.149915,0.32628 0.255734,0.67019 0.264551,1.03175 0.0088,0.36155 -0.07936,0.74073 -0.16314,1.09347 -0.08378,0.35274 -0.163139,0.67901 -0.229277,1.08907 -0.06614,0.41006 -0.119047,0.90387 -0.167549,1.33156 -0.0485,0.4277 -0.09259,0.78925 -0.136684,1.20371 -0.04409,0.41447 -0.08818,0.88184 -0.02645,1.60495 0.06173,0.72311 0.229274,1.70193 0.432099,2.53968 0.202824,0.83775 0.440916,1.53439 0.762791,2.22223 0.321874,0.68784 0.727511,1.36684 1.287482,2.05027 0.559971,0.68342 1.274245,1.37124 2.385373,2.11199 1.111128,0.74075 2.619032,1.53439 4.082892,1.99735 1.46386,0.46297 2.88359,0.59524 4.39154,0.6702 1.50796,0.075 3.10405,0.0926 4.28571,0.0926 1.18167,0 1.94885,-0.0176 2.71605,-0.0353 -0.20283,-0.24692 -0.40565,-0.49383 -0.60847,-0.74075 -0.0617,-0.13227 -0.12345,-0.26455 -0.20282,-0.48942 -0.0794,-0.22487 -0.17637,-0.54232 -0.22927,-0.83774 -0.0529,-0.29543 -0.0617,-0.56878 -0.0176,-0.8157 0.0441,-0.24692 0.1411,-0.46737 0.26456,-0.66579 0.12346,-0.19841 0.27336,-0.37477 0.50265,-0.50264 0.22929,-0.12787 0.53791,-0.20723 0.87742,-0.20282 0.33951,0.004 0.70988,0.0926 0.96121,0.17638 0.25133,0.0838 0.38359,0.16313 0.48941,0.29541 0.10582,0.13228 0.18518,0.31745 0.30423,0.54673 0.11905,0.22928 0.27778,0.50264 0.38801,0.71869 0.11023,0.21605 0.17196,0.37479 0.24251,0.48062 0.0706,0.10582 0.14991,0.15872 0.22928,0.13667 0.0794,-0.0221 0.15872,-0.11905 0.23809,-0.21605 0.0176,-0.14109 0.0353,-0.28219 0.0485,-0.50265 0.0132,-0.22046 0.0221,-0.52028 3e-5,-0.88624 -0.022,-0.36597 -0.075,-0.79806 -0.18518,-1.27867 -0.11023,-0.4806 -0.27778,-1.00969 -0.55556,-1.47707 -0.27778,-0.46738 -0.66578,-0.87302 -1.1067,-1.26103 -0.44093,-0.388 -0.93475,-0.75837 -1.47708,-1.09788 -0.54234,-0.33951 -1.13316,-0.64815 -1.90477,-0.95679 -0.77162,-0.30865 -1.72398,-0.61728 -2.69401,-0.85097 -0.97003,-0.23369 -1.95766,-0.39242 -2.63668,-0.51147 -0.67903,-0.11905 -1.04938,-0.19841 -1.42416,-0.388 -0.37479,-0.1896 -0.75397,-0.48942 -1.03175,-0.88625 -0.27778,-0.39683 -0.45415,-0.89065 -0.50705,-1.32274 -0.0529,-0.4321 0.0176,-0.80248 0.15873,-1.1464 0.1411,-0.34392 0.35273,-0.66137 0.6261,-0.8686 0.27338,-0.20724 0.60847,-0.30424 0.97003,-0.39683 0.36155,-0.0926 0.74955,-0.18078 1.4418,-0.12786 0.69225,0.0529 1.68871,0.24691 2.62787,0.48941 0.93916,0.24251 1.82098,0.53351 2.69401,0.87303 0.87302,0.33951 1.7372,0.72751 2.63227,1.26544 0.89508,0.53792 1.82099,1.22574 2.61464,1.90476 0.79366,0.67902 1.45502,1.3492 2.08113,2.12522 0.62611,0.77603 1.21693,1.65784 1.62699,2.4956 0.41005,0.83775 0.63932,1.63138 0.76278,2.15608 0.12345,0.52469 0.14109,0.78042 0.15872,1.03615 10.52029,0 21.04059,0 31.56089,0 0.92593,-0.21164 1.85185,-0.42328 2.76015,-0.64374 0.9083,-0.22046 1.79894,-0.44973 2.71165,-0.74956 0.91271,-0.29983 1.84743,-0.67019 2.60582,-1.01852 0.75838,-0.34833 1.34038,-0.6746 1.83421,-1.0097 0.49383,-0.3351 0.89947,-0.67901 1.30953,-1.01411 0.41006,-0.33511 0.82451,-0.66138 1.15079,-0.96121 0.32628,-0.29983 0.56437,-0.57318 0.80688,-0.92151 0.24251,-0.34833 0.48941,-0.7716 0.7231,-1.17284 0.23369,-0.40124 0.45415,-0.78042 0.63052,-1.17725 0.17637,-0.39683 0.30864,-0.81129 0.37036,-1.04059 0.0617,-0.22929 0.0529,-0.27335 0.0441,-0.31744 -7.44269,-0.0705 -14.88538,-0.14109 -22.32807,-0.21164 -1.41976,-0.11464 -2.83951,-0.22927 -4.37392,-0.42328 -1.53441,-0.194 -3.18341,-0.46737 -5.00442,-1.01852 -1.82101,-0.55116 -3.81392,-1.38007 -5.92594,-2.46915 -2.11202,-1.08908 -4.34302,-2.43826 -5.95238,-3.57584 -1.60936,-1.13757 -2.59699,-2.06348 -3.28042,-2.67636 -0.68342,-0.61288 -1.0626,-0.9127 -1.44179,-1.21252 -0.26455,0.35273 -0.52911,0.70547 -0.7951,1.05165 -0.26599,0.34618 -0.53342,0.6858 -0.80679,0.89303 -0.27337,0.20723 -0.55267,0.28207 -0.91279,0.29303 -0.36012,0.011 -0.80102,-0.0419 -1.2199,-0.16981 -0.41888,-0.12787 -0.81569,-0.33069 -1.12875,-0.59965 -0.31305,-0.26896 -0.54232,-0.60405 -0.67901,-0.98766 -0.13668,-0.3836 -0.18078,-0.81569 -0.15432,-1.13756 0.0265,-0.32187 0.12346,-0.53351 1.12877,-1.65346 1.00531,-1.11995 2.91885,-3.14813 3.94619,-4.21515 1.02735,-1.06702 1.16843,-1.17284 1.48589,-1.25661 0.31747,-0.0838 0.81129,-0.14551 1.20371,-0.12346 0.39242,0.022 0.68342,0.12786 0.98766,0.26895 0.30423,0.1411 0.62169,0.31746 0.89065,0.56879 0.26896,0.25133 0.48942,0.5776 0.63051,0.9612 0.1411,0.3836 0.20282,0.82451 0.20723,1.24779 0.004,0.42329 -0.0485,0.82893 -0.11905,1.11553 -0.0706,0.2866 -0.15873,0.45414 0.0882,0.79806 0.24692,0.34392 0.82892,0.86419 1.74164,1.60053 0.91271,0.73635 2.15607,1.68871 3.51852,2.55292 1.36245,0.8642 2.84391,1.6402 4.53705,2.36332 1.69314,0.72311 3.59787,1.39329 5.10141,1.78571 1.50354,0.39241 2.60581,0.50705 9.73999,0.54673 7.13418,0.0397 20.29972,0.004 27.08103,-0.0441 6.78132,-0.0485 7.17814,-0.11022 7.74694,-0.42769 0.56879,-0.31747 1.30951,-0.89065 1.94444,-1.49912 0.63493,-0.60848 1.16402,-1.2522 1.60053,-1.88272 0.43651,-0.63052 0.78042,-1.24779 0.99647,-2.04146 0.21605,-0.79366 0.30423,-1.76366 0.23809,-2.67195 -0.0661,-0.9083 -0.28659,-1.75485 -0.55556,-2.38978 -0.26896,-0.63492 -0.58641,-1.05819 -0.9612,-1.48589 -0.37478,-0.42769 -0.80687,-0.85978 -1.44621,-1.35361 -0.63934,-0.49384 -1.48589,-1.04938 -2.24868,-1.37566 -0.76279,-0.32628 -1.44179,-0.42329 -2.13845,-0.44533 -0.69666,-0.0221 -1.41093,0.0309 -2.05467,0.14551 -0.64375,0.11464 -1.21693,0.291 -1.70635,0.47619 -0.48943,0.18519 -0.89507,0.37919 -1.30071,0.57319 -2.8836,-1.91358 -5.7672,-3.82717 -7.32364,-4.97797 -1.55645,-1.1508 -1.78572,-1.5388 -1.84745,-2.01058 -0.0617,-0.47179 0.0441,-1.02733 0.26455,-1.45944 0.22047,-0.4321 0.55556,-0.74074 1.00971,-0.95238 0.45415,-0.21164 1.02733,-0.32627 1.46801,-0.31233 0.44068,0.0139 0.74884,0.15646 0.90293,0.22772 0.15408,0.0713 0.15404,0.0712 1.10213,0.76707 z"
       id="path1"
       sodipodi:nodetypes="cccccccccccccccccccccccccccccccccccccccccccccccccccccccccccccccccccccccccccccccccccccccccccccccccccccccccccccccccccccccccccccccccccccccccccccccccccccccccccccccccccccccccccccccccccccccccccccccccccccccccccccccccccccccccccccccccccccccccccccccccccccccccccccccccccccccccccccccccccccccccccccccccccccccccccccccccccccccccccccccccccccccccccccccccccccccccccccccccccccccccccccccccccccccccccccccccccccccccccccccccccccccccccccccccccccccccccccccccccccccccccccccccccccccccccccccccccccccccccc"
       transform="matrix(0.99713082,0,0,0.98766146,0.40844377,2.2549135)" /><path
       id="path3"
       style="opacity:1;fill:#003032;stroke-width:0.312319"
       d="m 178.6472,144.86374 a 2.866091,2.8968902 0 0 1 -2.86609,2.89689 2.866091,2.8968902 0 0 1 -2.86609,-2.89689 2.866091,2.8968902 0 0 1 2.86609,-2.89689 2.866091,2.8968902 0 0 1 2.86609,2.89689 z" /><path
       id="path3-3"
       style="fill:#003032;stroke-width:0.312319"
       d="m 186.73264,144.9252 a 2.866091,2.8968902 0 0 1 -2.86609,2.89689 2.866091,2.8968902 0 0 1 -2.86609,-2.89689 2.866091,2.8968902 0 0 1 2.86609,-2.89689 2.866091,2.8968902 0 0 1 2.86609,2.89689 z" /><path
       style="opacity:1;fill:#023437;fill-opacity:1;stroke-width:0.264583"
       d="m 172.6655,163.84853 c 0.57679,0.70773 1.73036,2.12319 2.88393,3.53865 0,0 5.01336,0.0561 5.01336,0.0561 0.35542,0.11848 0.71085,0.23695 1.01327,0.42402 0.30243,0.18707 0.55184,0.44272 0.73891,0.76074 0.18706,0.31801 0.31177,0.69837 0.32424,1.10992 0.0125,0.41156 -0.0873,0.85426 -0.3336,1.26269 -0.24631,0.40843 -0.63914,0.78255 -1.01327,0.99768 -0.37414,0.21512 -0.72955,0.27124 -5.19427,0.30553 -4.46471,0.0343 -13.03838,0.0468 -21.61222,0.0592 1.73766,-0.47846 3.47531,-0.95691 4.85231,-1.35928 1.37699,-0.40238 2.39329,-0.72865 3.25199,-1.0384 0.85869,-0.30975 1.55973,-0.60295 2.32583,-0.99427 0.76611,-0.39132 1.59722,-0.88073 2.24537,-1.30732 0.64815,-0.42659 1.11331,-0.79034 1.54321,-1.14639 0.4299,-0.35604 0.82451,-0.70435 1.2489,-1.11552 0.42439,-0.41116 0.87853,-0.88513 1.23016,-1.27756 0.35164,-0.39242 0.60075,-0.70326 0.73452,-0.85359 0.13376,-0.15034 0.15214,-0.14018 0.16134,-0.1351 0.009,0.005 0.009,0.005 0.58602,0.71287 z"
       id="path4" /><path
       style="opacity:1;fill:#ffffff;fill-opacity:1;stroke-width:0.264583"
       d="m 23.546219,123.1306 c 0.530019,0.56431 1.590056,1.69294 2.151253,2.17931 0.561197,0.48637 0.623551,0.33049 0.685906,0.1746 -0.07483,-0.32425 -0.149653,-0.6485 -0.280602,-0.9821 -0.130948,-0.33361 -0.318006,-0.67655 -0.55496,-0.99769 -0.236953,-0.32113 -0.523777,-0.62042 -0.81997,-0.82308 -0.296192,-0.20266 -0.601725,-0.30866 -0.860498,-0.36477 -0.258773,-0.0561 -0.470784,-0.0624 -0.604848,-0.0125 -0.134065,0.0499 -0.190182,0.15589 -0.218241,0.20889 -0.02806,0.053 -0.02806,0.053 0.50196,0.61731 z m 13.870909,6.65953 c 0.782557,0.0717 2.328966,0.12783 3.875374,0.18395 -0.106004,-0.11224 -0.212007,-0.22448 -0.34919,-0.38037 -0.137183,-0.15589 -0.305537,-0.35542 -0.526902,-0.52067 -0.221364,-0.16524 -0.495721,-0.29618 -0.844913,-0.36477 -0.349192,-0.0686 -0.773202,-0.0748 -1.162921,-0.0312 -0.389719,0.0437 -0.745143,0.13719 -1.041333,0.28996 -0.29619,0.15277 -0.533134,0.36477 -0.642256,0.51443 -0.109122,0.14965 -0.09042,0.23694 0.692141,0.30865 z"
       id="path7" /><path
       style="opacity:1;fill:#71fc97;fill-opacity:1;stroke-width:0.264583"
       d="m 56.66617,127.1525 c 1.680472,-0.52066 5.041416,-1.56199 6.640826,-2.18866 1.59941,-0.62667 1.437287,-0.83868 1.19098,-0.96963 -0.246307,-0.13094 -0.576785,-0.18083 -1.116161,-0.23695 -0.539376,-0.0561 -1.287628,-0.11847 -1.792707,-0.14029 -0.505079,-0.0218 -0.766966,-0.003 -1.147334,0.0374 -0.380368,0.0405 -0.879205,0.10288 -1.314136,0.2042 -0.43493,0.10133 -0.805938,0.24163 -1.133305,0.38349 -0.327368,0.14186 -0.611077,0.28527 -0.837116,0.41934 -0.226039,0.13406 -0.394396,0.25877 -0.565876,0.38348 -0.17148,0.12472 -0.346067,0.24942 -0.484809,0.3679 -0.138741,0.11847 -0.241626,0.23071 -0.341396,0.37569 -0.09977,0.14498 -0.196414,0.32268 -0.291508,0.50975 -0.0951,0.18707 -0.188624,0.38348 -0.269687,0.6142 -0.08106,0.23072 -0.149652,0.49572 -0.183948,0.62822 -0.0343,0.13251 -0.0343,0.13253 1.646177,-0.38814 z"
       id="path8" /><path
       style="opacity:1;fill:#ffffff;fill-opacity:1;stroke-width:0.264583"
       d="m 54.993491,127.5282 c -0.02027,-0.0795 -0.06079,-0.23851 -0.04832,-0.45208 0.01247,-0.21357 0.07794,-0.48169 0.162123,-0.73579 0.08418,-0.2541 0.187064,-0.49416 0.308658,-0.73423 0.121594,-0.24007 0.261892,-0.48014 0.453635,-0.75918 0.191743,-0.27904 0.434927,-0.59705 0.699939,-0.89168 0.265012,-0.29463 0.551841,-0.56587 0.897916,-0.80282 0.346076,-0.23695 0.751374,-0.4396 1.128626,-0.59549 0.377252,-0.15589 0.726435,-0.26501 1.128632,-0.33515 0.402196,-0.0701 0.857383,-0.10131 1.248661,-0.10598 0.391278,-0.005 0.718635,0.0172 1.039768,0.0811 0.321134,0.0639 0.636023,0.16992 0.974304,0.3601 0.338282,0.19019 0.699935,0.46455 0.933767,0.68591 0.233833,0.22136 0.339837,0.38972 0.417772,0.5113 0.07793,0.12158 0.127834,0.19643 0.0078,0.19643 -0.120033,0 -0.409987,-0.0748 -0.648497,-0.12005 -0.23851,-0.0452 -0.425571,-0.0608 -0.743587,-0.0764 -0.318016,-0.0156 -0.766966,-0.0312 -1.229954,-0.0343 -0.462988,-0.003 -0.940001,0.006 -1.337518,0.0312 -0.397516,0.0249 -0.715529,0.0655 -1.010163,0.12629 -0.294634,0.0608 -0.565864,0.14185 -0.844913,0.23071 -0.279049,0.0889 -0.565863,0.1855 -0.846463,0.32112 -0.2806,0.13563 -0.554958,0.31022 -0.784116,0.47391 -0.229158,0.16368 -0.413104,0.31645 -0.568991,0.45986 -0.155888,0.14342 -0.283711,0.27748 -0.395951,0.41155 -0.112239,0.13406 -0.208888,0.26812 -0.299306,0.44116 -0.09042,0.17304 -0.174594,0.38504 -0.260335,0.59394 -0.08574,0.20889 -0.173036,0.41466 -0.227594,0.53625 -0.05456,0.12159 -0.07638,0.15899 -0.09352,0.18861 -0.01714,0.0296 -0.02961,0.0514 -0.03586,0.0624 -0.0063,0.0109 -0.0062,0.0109 -0.02651,-0.0686 z"
       id="path9" /><path
       style="fill:#ffffff;fill-opacity:1;stroke-width:0.264583"
       d="m 54.993491,127.5282 c -0.02027,-0.0795 -0.06079,-0.23851 -0.04832,-0.45208 0.01247,-0.21357 0.07794,-0.48169 0.162123,-0.73579 0.08418,-0.2541 0.187064,-0.49416 0.308658,-0.73423 0.121594,-0.24007 0.261892,-0.48014 0.453635,-0.75918 0.191743,-0.27904 0.434927,-0.59705 0.699939,-0.89168 0.265012,-0.29463 0.551841,-0.56587 0.897916,-0.80282 0.346076,-0.23695 0.751374,-0.4396 1.128626,-0.59549 0.377252,-0.15589 0.726435,-0.26501 1.128632,-0.33515 0.402196,-0.0701 0.857383,-0.10131 1.248661,-0.10598 0.391278,-0.005 0.718635,0.0172 1.039768,0.0811 0.321134,0.0639 0.636023,0.16992 0.974304,0.3601 0.338282,0.19019 0.699935,0.46455 0.933767,0.68591 0.233833,0.22136 0.339837,0.38972 0.417772,0.5113 0.07793,0.12158 0.127834,0.19643 0.0078,0.19643 -0.120033,0 -0.409987,-0.0748 -0.648497,-0.12005 -0.23851,-0.0452 -0.425571,-0.0608 -0.743587,-0.0764 -0.318016,-0.0156 -0.766966,-0.0312 -1.229954,-0.0343 -0.462988,-0.003 -0.940001,0.006 -1.337518,0.0312 -0.397516,0.0249 -0.715529,0.0655 -1.010163,0.12629 -0.294634,0.0608 -0.565864,0.14185 -0.844913,0.23071 -0.279049,0.0889 -0.565863,0.1855 -0.846463,0.32112 -0.2806,0.13563 -0.554958,0.31022 -0.784116,0.47391 -0.229158,0.16368 -0.413104,0.31645 -0.568991,0.45986 -0.155888,0.14342 -0.283711,0.27748 -0.395951,0.41155 -0.112239,0.13406 -0.208888,0.26812 -0.299306,0.44116 -0.09042,0.17304 -0.174594,0.38504 -0.260335,0.59394 -0.08574,0.20889 -0.173036,0.41466 -0.227594,0.53625 -0.05456,0.12159 -0.07638,0.15899 -0.09352,0.18861 -0.01714,0.0296 -0.02961,0.0514 -0.03586,0.0624 -0.0063,0.0109 -0.0062,0.0109 -0.02651,-0.0686 z"
       id="path9-1"
       transform="matrix(1.2686042,0.37288255,-0.33156863,1.426674,54.176219,-82.263949)" /><path
       id="path19"
       style="opacity:1;fill:#003032;stroke-width:0.269547"
       d="m 134.95622,126.24212 a 4.4334526,5.1255956 0 0 1 -4.43345,5.12559 4.4334526,5.1255956 0 0 1 -4.43346,-5.12559 4.4334526,5.1255956 0 0 1 4.43346,-5.1256 4.4334526,5.1255956 0 0 1 4.43345,5.1256 z" /><path
       style="opacity:1;fill:#138f8e;fill-opacity:1;stroke-width:0.324258"
       d="m 49.665553,137.78492 c 1.032154,-0.27922 3.096457,-0.83766 4.296982,-1.08696 1.200526,-0.2493 1.537236,-0.18947 1.780638,-0.0698 0.243402,0.11966 0.393466,0.29916 0.488629,0.48464 0.09516,0.18548 0.135424,0.37694 0.184836,0.63024 0.04941,0.25329 0.107973,0.56841 0.140914,0.80575 0.03294,0.23734 0.04026,0.39688 0.03843,0.56042 -0.0018,0.16355 -0.01281,0.33109 -0.113467,0.5046 -0.100657,0.17351 -0.290975,0.35301 -0.431878,0.48064 -0.140902,0.12763 -0.232426,0.20344 -0.417258,0.29119 -0.184831,0.0878 -0.46301,0.18749 -0.777783,0.26128 -0.314773,0.0738 -0.666138,0.12165 -1.15477,0.2114 -0.488632,0.0898 -1.114503,0.22138 -1.694635,0.30914 -0.580133,0.0877 -1.1145,0.13163 -1.636069,0.1795 -0.521569,0.0479 -1.030324,0.0997 -1.460389,0.016 -0.430065,-0.0838 -0.781427,-0.30315 -1.008357,-0.54846 -0.226929,-0.24532 -0.329414,-0.51656 -0.371503,-0.75989 -0.04209,-0.24332 -0.02379,-0.4587 0.03294,-0.69006 0.05673,-0.23135 0.151896,-0.47866 0.245244,-0.66416 0.09335,-0.1855 0.184821,-0.30911 0.322076,-0.40484 0.137255,-0.0957 0.32026,-0.16355 0.411763,-0.19745 0.0915,-0.0339 0.0915,-0.0339 1.12365,-0.31313 z"
       id="path23" /><path
       style="opacity:1;fill:#138f8e;fill-opacity:1;stroke-width:0.336572"
       d="m 68.612969,135.9266 c 0.01408,0.19829 0.04224,0.59487 -0.04787,0.96633 -0.09011,0.37146 -0.298495,0.71776 -0.489989,0.96354 -0.191495,0.24577 -0.366081,0.391 -0.667399,0.53064 -0.301318,0.13965 -0.729347,0.2737 -1.103885,0.34633 -0.374538,0.0726 -0.695551,0.0838 -1.025029,0.0112 -0.329478,-0.0726 -0.667399,-0.22901 -0.884232,-0.3882 -0.216833,-0.1592 -0.312579,-0.32119 -0.366083,-0.51948 -0.0535,-0.19829 -0.06477,-0.43289 -0.03943,-0.67587 0.02534,-0.24298 0.08729,-0.49433 0.239362,-0.76245 0.152069,-0.26812 0.394241,-0.55299 0.72372,-0.782 0.32948,-0.22902 0.746243,-0.40218 1.11233,-0.52227 0.366087,-0.12009 0.681479,-0.18712 0.946189,-0.20386 0.264709,-0.0168 0.478709,0.0168 0.684283,0.067 0.205574,0.0503 0.402696,0.11731 0.551948,0.24858 0.149253,0.13127 0.250623,0.32676 0.301312,0.42451 0.05069,0.0977 0.05069,0.0976 0.06477,0.29594 z"
       id="path24" /><path
       style="opacity:1;fill:#138f8e;fill-opacity:1;stroke-width:0.31197"
       d="m 73.534873,139.81335 c 0,-0.0155 0,-0.0465 0.01308,-0.21963 0.01308,-0.17316 0.03922,-0.48842 0.104598,-0.84502 0.06537,-0.35661 0.169968,-0.75454 0.282409,-1.07497 0.112441,-0.32042 0.232725,-0.56332 0.407923,-0.8424 0.175199,-0.27908 0.405308,-0.59434 0.674646,-0.9096 0.269339,-0.31526 0.577886,-0.6305 0.980582,-0.94576 0.402697,-0.31526 0.899519,-0.63051 1.265605,-0.81915 0.366085,-0.18864 0.601423,-0.25065 0.912596,-0.24807 0.311173,0.003 0.698175,0.0698 0.985813,0.20156 0.287638,0.13179 0.475909,0.32818 0.596193,0.52198 0.120285,0.19381 0.172581,0.38502 0.198731,0.60209 0.02615,0.21706 0.02615,0.45996 -0.0523,0.77264 -0.07845,0.31267 -0.235341,0.69511 -0.366086,1.01037 -0.130745,0.31525 -0.235335,0.56331 -0.457605,0.95868 -0.22227,0.39537 -0.562197,0.93801 -0.844608,1.34372 -0.282411,0.4057 -0.507285,0.67443 -0.732168,0.90442 -0.224882,0.22998 -0.449761,0.4212 -0.666808,0.56075 -0.217046,0.13954 -0.426214,0.22739 -0.703398,0.25065 -0.277184,0.0233 -0.622335,-0.0181 -0.928288,-0.0853 -0.305953,-0.0672 -0.572658,-0.16021 -0.763537,-0.21964 -0.19088,-0.0594 -0.305956,-0.0853 -0.444542,-0.22995 -0.138586,-0.1447 -0.300705,-0.40827 -0.381768,-0.54006 -0.08106,-0.13179 -0.08106,-0.1318 -0.08106,-0.14733 z"
       id="path25" /><path
       style="opacity:1;fill:#ffffff;fill-opacity:1;stroke-width:0.2879"
       d="m 75.84978,131.89655 c 0.05331,0.14488 0.159921,0.43462 0.20838,0.70061 0.04846,0.266 0.03877,0.50824 -0.06059,0.76474 -0.09935,0.2565 -0.288341,0.52724 -0.399809,0.68162 -0.111466,0.15438 -0.145347,0.19233 -0.380397,0.33248 -0.23505,0.14013 -0.671193,0.38237 -1.112189,0.55099 -0.440998,0.16863 -0.886824,0.26363 -1.366591,0.33725 -0.479767,0.0737 -0.993441,0.12588 -1.422324,0.13537 -0.428884,0.01 -0.772939,-0.0237 -1.107323,-0.12113 -0.334384,-0.0974 -0.659067,-0.25887 -0.857757,-0.45599 -0.19869,-0.19713 -0.271378,-0.42986 -0.327108,-0.68636 -0.05573,-0.2565 -0.0945,-0.53674 -0.05088,-0.80749 0.04362,-0.27074 0.169611,-0.53198 0.334378,-0.74335 0.164769,-0.21137 0.368301,-0.37287 0.642109,-0.50349 0.273808,-0.13063 0.617871,-0.23037 1.020099,-0.33488 0.402228,-0.10449 0.862595,-0.21374 1.395666,-0.30636 0.533073,-0.0926 1.138826,-0.16864 1.565286,-0.19237 0.426459,-0.0237 0.673596,0.005 0.872281,0.0547 0.198685,0.0499 0.348924,0.12113 0.518539,0.21612 0.169614,0.095 0.358608,0.21375 0.440985,0.25649 0.08237,0.0427 0.05817,0.01 0.04606,-0.008 -0.01212,-0.0166 -0.01212,-0.0167 0.04118,0.12821 z"
       id="path26" /><path
       style="opacity:1;fill:#ffffff;fill-opacity:1;stroke-width:0.334986"
       d="m 87.941316,130.03422 c 0.04904,0.21067 0.147112,0.632 0.175958,0.92909 0.02885,0.2971 -0.01153,0.46994 -0.178842,0.68331 -0.167307,0.21337 -0.461533,0.46725 -0.807688,0.65631 -0.346156,0.18906 -0.744215,0.3133 -1.148058,0.41593 -0.403843,0.10264 -0.813454,0.18366 -1.32403,0.22148 -0.510576,0.0378 -1.122106,0.0324 -1.56345,-0.027 -0.441344,-0.0594 -0.712489,-0.17285 -0.928834,-0.35921 -0.216346,-0.18637 -0.377877,-0.44564 -0.496147,-0.70222 -0.11827,-0.25659 -0.193266,-0.51045 -0.207688,-0.76163 -0.01442,-0.25119 0.03173,-0.49966 0.216348,-0.77515 0.184617,-0.27549 0.507685,-0.57798 0.830761,-0.80755 0.323075,-0.22957 0.646147,-0.38622 1.009604,-0.49966 0.363456,-0.11343 0.767296,-0.18366 1.231722,-0.20797 0.464425,-0.0243 0.989407,-0.003 1.370181,0.0567 0.380774,0.0594 0.61729,0.15664 0.888444,0.3241 0.271153,0.16745 0.576913,0.40512 0.729798,0.52396 0.152884,0.11884 0.152883,0.11881 0.201921,0.32948 z"
       id="path27" /><path
       style="opacity:1;fill:#138f8e;fill-opacity:1;stroke-width:0.336951"
       d="m 104.31423,129.38284 c 0.0222,0.29548 0.0666,0.88644 -0.0389,1.36378 -0.10543,0.47734 -0.36066,0.84101 -0.79347,1.15354 -0.4328,0.31254 -1.04314,0.57393 -1.77003,0.71031 -0.72688,0.13639 -1.57025,0.14777 -2.114028,-0.0682 -0.543771,-0.21592 -0.78791,-0.65915 -0.704676,-1.2274 0.08324,-0.56825 0.49383,-1.2615 0.932178,-1.72177 0.438346,-0.46029 0.904426,-0.68759 1.481486,-0.89216 0.57707,-0.20457 1.26509,-0.38641 1.78112,-0.31822 0.51603,0.0682 0.86004,0.3864 1.03205,0.54552 0.17202,0.15911 0.17202,0.15905 0.19421,0.45455 z"
       id="path28" /><path
       style="opacity:1;fill:#138f8e;fill-opacity:1;stroke-width:0.343661"
       d="m 101.76291,135.73132 c -0.0912,0.24747 -0.27356,0.74241 -0.50152,1.13375 -0.22796,0.39135 -0.50152,0.67911 -0.76936,0.86326 -0.26784,0.18416 -0.530016,0.26473 -0.906151,0.24172 -0.376139,-0.0231 -0.866243,-0.14964 -1.219585,-0.39712 -0.353342,-0.24747 -0.5699,-0.61578 -0.666783,-1.00713 -0.09689,-0.39134 -0.07409,-0.8057 0.02849,-1.15102 0.102586,-0.34531 0.284947,-0.62153 0.564203,-0.93807 0.279258,-0.31654 0.655382,-0.67334 1.025818,-0.89203 0.370437,-0.21871 0.735188,-0.29927 0.985948,-0.35683 0.25077,-0.0575 0.38751,-0.0921 0.61547,0.023 0.22798,0.1151 0.54712,0.37982 0.74088,0.62729 0.19377,0.24747 0.26215,0.47767 0.27355,0.74241 0.0114,0.26474 -0.0342,0.56398 -0.057,0.71362 -0.0228,0.14963 -0.0228,0.14968 -0.11397,0.39715 z"
       id="path29" /><path
       style="opacity:1;fill:#000000;fill-opacity:0;stroke-width:0.264583"
       d="m 107.06647,155.33361 c 0.17196,0.0276 0.51587,0.0827 0.85979,0.13778 -0.11905,-0.4321 -0.23809,-0.8642 -0.35824,-1.31174 -0.12016,-0.44753 -0.24141,-0.91049 -0.38691,-1.30401 -0.14551,-0.39352 -0.31526,-0.71759 -0.528,-1.09238 -0.21275,-0.37478 -0.46847,-0.80025 -0.68122,-1.09677 -0.21274,-0.29652 -0.38249,-0.46407 -0.55004,-0.63272 -0.16755,-0.16865 -0.33289,-0.3384 -0.46958,-0.48721 -0.13668,-0.14881 -0.24471,-0.27668 -0.36817,-0.40565 -0.12345,-0.12897 -0.26234,-0.25904 -0.39242,-0.37147 -0.13007,-0.11244 -0.25131,-0.20723 -0.32184,-0.25463 -0.0705,-0.0474 -0.0904,-0.0474 -0.11023,-0.0474 0,0 0.43651,1.11773 0.43651,1.11773 0.16534,0.22266 0.33069,0.44533 0.4806,0.64374 0.14991,0.19841 0.28439,0.37257 0.40234,0.53902 0.11794,0.16645 0.21935,0.32518 0.32958,0.51147 0.11023,0.18629 0.22928,0.40013 0.32518,0.59743 0.0959,0.1973 0.16865,0.37809 0.24912,0.59304 0.0805,0.21496 0.16865,0.46407 0.25573,0.69776 0.0871,0.23369 0.17306,0.45193 0.25022,0.65254 0.0772,0.20062 0.1455,0.38361 0.20392,0.54785 0.0584,0.16425 0.10693,0.30975 0.14,0.42329 0.0331,0.11355 0.0507,0.19511 0.0584,0.27558 0.008,0.0805 0.005,0.1598 0.004,0.1995 -0.001,0.0397 -8e-4,0.0397 0.17116,0.0673 z m -39.538027,2.87801 c 0,0 0.766969,0.0468 0.766969,0.0468 0.02806,-1.25334 0.05612,-2.50668 0.0265,-3.37342 -0.02962,-0.86674 -0.116916,-1.34687 -0.286836,-1.94393 -0.169919,-0.59705 -0.422455,-1.31101 -0.62823,-1.774 -0.205774,-0.46299 -0.364773,-0.67499 -0.598608,-0.94468 -0.233835,-0.26969 -0.542489,-0.59705 -0.760732,-0.84023 -0.218244,-0.24319 -0.34607,-0.40219 -0.473898,-0.5612 0,0 0.09353,0.51443 0.09353,0.51443 0.159006,0.36166 0.318011,0.72332 0.528464,1.17384 0.210452,0.45053 0.472338,0.98989 0.654727,1.45288 0.182389,0.46299 0.285272,0.84958 0.363217,1.20657 0.07795,0.35699 0.130945,0.68434 0.171477,1.10837 0.04053,0.42402 0.06859,0.94467 0.09042,1.61656 0.02182,0.67188 0.03741,1.49495 0.053,2.31804 z"
       id="path30" /><path
       style="opacity:1;fill:#ffffff;fill-opacity:1;stroke-width:0.264583"
       d="m 150.50136,131.33966 c 0.21201,0.21824 0.42401,0.43648 0.46766,0.71397 0.0437,0.27748 -0.0811,0.61419 -0.31177,0.90103 -0.23072,0.28683 -0.56744,0.52378 -0.97275,0.77632 -0.40531,0.25254 -0.8792,0.52066 -1.3344,0.71085 -0.4552,0.19018 -0.89168,0.30242 -1.32505,0.3866 -0.43337,0.0842 -0.86361,0.1403 -1.41546,0.20889 -0.55185,0.0686 -1.22527,0.14965 -1.89248,0.19641 -0.66721,0.0468 -1.32816,0.0592 -1.87065,0.0655 -0.5425,0.006 -0.96651,0.006 -1.39052,0.006 0,0 2.97434,0.48637 2.97434,0.48637 1.01015,0.0811 2.02031,0.16212 3.0866,0.19642 1.06628,0.0343 2.18865,0.0218 3.34535,-0.0218 1.1567,-0.0436 2.34766,-0.11847 3.63219,-0.38037 1.28453,-0.2619 2.66255,-0.71084 3.81302,-1.26893 1.15046,-0.55809 2.07329,-1.22527 2.89951,-2.17308 0.82621,-0.94782 1.55575,-2.17619 2.00159,-3.20194 0.44585,-1.02575 0.60797,-1.84882 0.69214,-2.3196 0.0842,-0.47078 0.0904,-0.58926 -0.0561,-1.1567 -0.14654,-0.56744 -0.44584,-1.58381 -0.81685,-2.4755 -0.37102,-0.89169 -0.81374,-1.65864 -1.44041,-2.32896 -0.62668,-0.67033 -1.43728,-1.24398 -2.50045,-1.77712 -1.06317,-0.53315 -2.37884,-1.02574 -3.51059,-1.21904 -1.13176,-0.1933 -2.07954,-0.0873 -2.8434,0.0156 -0.76385,0.10289 -1.34374,0.20266 -1.61811,0.46456 -0.27436,0.26189 -0.2432,0.6859 0.009,1.19722 0.25254,0.51131 0.72643,1.10991 1.0725,1.49028 0.34607,0.38037 0.56431,0.54249 0.89791,0.57055 0.33361,0.028 0.78256,-0.078 1.38429,0.0686 0.60174,0.14654 1.35622,0.54561 1.8613,1.0351 0.50508,0.48949 0.76073,1.06939 0.96027,1.7023 0.19954,0.63291 0.34295,1.3188 0.32424,2.02342 -0.0187,0.70462 -0.19953,1.42793 -0.47701,2.04525 -0.27749,0.61732 -0.65161,1.12862 -0.99145,1.50588 -0.33984,0.37725 -0.64538,0.62043 -1.10058,0.78255 -0.45519,0.16212 -1.06003,0.24319 -1.56199,0.29307 -0.50196,0.0499 -0.90103,0.0686 -1.17851,0.0748 -0.27747,0.006 -0.43337,0 -0.55186,-0.0437 -0.11849,-0.0437 -0.19952,-0.12469 -0.28058,-0.20575 z"
       id="path31"
       transform="matrix(1.0155257,0,0,1.0070972,-2.1806829,-0.96527081)" /><path
       style="opacity:1;fill:#003032;fill-opacity:1;stroke-width:0.264583"
       d="m 150.48265,121.66837 c 0.45519,-0.20577 0.91038,-0.41154 1.46224,-0.49573 0.55185,-0.0842 1.20033,-0.0468 1.75529,0.11848 0.55497,0.16525 1.01639,0.45831 1.34999,0.76386 0.3336,0.30554 0.53937,0.62354 0.73579,0.91661 0.19642,0.29308 0.38349,0.5612 0.53626,0.92286 0.15277,0.36167 0.27124,0.81685 0.33671,1.23464 0.0655,0.41778 0.0779,0.79814 0.0904,1.08809 0.0125,0.28995 0.0249,0.48949 0.009,0.74514 -0.0156,0.25565 -0.0592,0.56743 -0.1746,0.91663 -0.11536,0.34919 -0.30242,0.73579 -0.53937,1.10369 -0.23695,0.36789 -0.52378,0.71708 -0.81997,1.01638 -0.29619,0.29931 -0.60173,0.54873 -0.8605,0.70773 -0.25878,0.15901 -0.47078,0.2276 -0.75762,0.28996 -0.28684,0.0623 -0.64849,0.11847 -1.0538,0.14341 -0.40532,0.0249 -0.85426,0.0187 -1.22216,-0.0468 -0.3679,-0.0655 -0.65473,-0.19018 -0.94156,-0.31489 z"
       id="path18"
       transform="matrix(1.1223838,0,0,1.0466523,-18.81673,-5.7257757)" /><path
       style="fill:#71fc97;fill-opacity:1;stroke-width:0.264583"
       d="m 56.554563,127.0593 c 1.568865,-0.61388 4.706578,-1.84162 6.301589,-2.46879 1.595011,-0.62717 1.647176,-0.6537 1.512421,-0.69146 -0.134754,-0.0378 -0.456221,-0.0867 -0.991178,-0.1423 -0.534956,-0.0556 -1.283208,-0.11799 -1.788287,-0.13981 -0.505079,-0.0218 -0.766966,-0.003 -1.147334,0.0374 -0.380368,0.0405 -0.879205,0.10288 -1.314136,0.2042 -0.43493,0.10133 -0.805938,0.24163 -1.133305,0.38349 -0.327368,0.14186 -0.611077,0.28527 -0.837116,0.41934 -0.226039,0.13406 -0.394396,0.25877 -0.565876,0.38348 -0.17148,0.12472 -0.346067,0.24942 -0.484809,0.3679 -0.138741,0.11847 -0.241626,0.23071 -0.341396,0.37569 -0.09977,0.14498 -0.196414,0.32268 -0.291508,0.50975 -0.0951,0.18707 -0.188624,0.38348 -0.269687,0.6142 -0.08106,0.23072 -0.149652,0.49572 -0.183948,0.62822 -0.0343,0.13251 -0.0343,0.13256 1.53457,-0.48131 z"
       id="path8-3"
       transform="matrix(1.2686042,0.37288255,-0.33156863,1.426674,54.176219,-82.263949)"
       sodipodi:nodetypes="ccccccccccccccsc" /></g></svg>
